<?xml version="1.0" standalone="no"?>
<!DOCTYPE svg PUBLIC "-//W3C//DTD SVG 20010904//EN"
 "http://www.w3.org/TR/2001/REC-SVG-20010904/DTD/svg10.dtd">
<svg version="1.0" xmlns="http://www.w3.org/2000/svg"
 width="1467.000000pt" height="1600.000000pt" viewBox="0 0 1467.000000 1600.000000"
 preserveAspectRatio="xMidYMid meet">

<g transform="translate(0.000000,1600.000000) scale(0.100000,-0.100000)"
fill="#000000" stroke="none">
<path d="M7825 15933 c-9 -96 -25 -141 -54 -162 -27 -18 -234 -47 -253 -35 -5
4 -22 -5 -36 -18 -56 -50 -61 -52 -165 -54 -56 -1 -113 -7 -127 -13 -20 -9
-12 -10 43 -5 55 5 67 3 67 -9 0 -8 -12 -19 -27 -25 -30 -11 -130 -24 -176
-23 -15 1 -38 -4 -50 -11 -12 -6 -51 -13 -86 -15 -35 -2 -70 -8 -78 -15 -11
-9 -12 -7 -7 7 7 16 2 17 -48 11 -60 -8 -134 -33 -192 -66 -20 -11 -45 -20
-56 -20 -10 0 -30 -11 -44 -24 -28 -25 -113 -62 -123 -52 -3 3 0 12 7 21 9 11
9 15 1 15 -6 0 -14 -7 -17 -15 -4 -8 -12 -15 -19 -15 -7 0 -25 -10 -40 -21
-17 -14 -29 -18 -34 -11 -3 5 -58 13 -121 17 -129 8 -199 -5 -276 -50 -44 -26
-63 -45 -45 -45 5 0 13 5 16 10 4 6 14 8 24 5 9 -3 46 7 81 21 44 17 75 24 97
21 18 -3 35 -1 38 4 4 5 30 8 59 7 58 -3 66 -17 27 -44 -18 -13 -28 -14 -47
-5 -15 6 -24 7 -24 1 0 -6 -8 -10 -18 -10 -9 0 -22 -8 -28 -18 -22 -34 -229
-102 -313 -102 -61 0 -122 -14 -214 -47 -38 -14 -105 -29 -149 -34 -45 -5
-107 -18 -139 -29 -75 -24 -185 -82 -224 -118 -32 -28 -75 -102 -75 -127 0 -8
-4 -15 -10 -15 -5 0 -10 -9 -10 -20 0 -13 -7 -20 -20 -20 -13 0 -24 -10 -31
-27 -11 -29 -67 -93 -81 -93 -5 0 -34 -19 -66 -42 -58 -44 -93 -66 -151 -93
-44 -21 -91 -74 -91 -102 0 -13 -4 -23 -10 -23 -5 0 -7 -6 -4 -14 10 -25 -38
-90 -151 -207 -41 -42 -90 -102 -110 -133 -21 -32 -69 -83 -116 -122 -82 -68
-169 -177 -169 -211 0 -11 -10 -30 -21 -42 -12 -13 -22 -36 -23 -52 -1 -16 -4
-29 -7 -29 -3 0 -11 -22 -18 -49 -7 -28 -19 -55 -27 -62 -15 -12 -17 -58 -4
-99 7 -22 8 -21 9 13 1 35 2 36 21 25 20 -13 28 -38 11 -38 -17 0 -22 -34 -7
-42 18 -10 9 -41 -10 -34 -31 12 -4 -44 52 -104 18 -20 35 -51 38 -73 4 -21
16 -58 26 -82 17 -40 23 -45 50 -45 27 0 31 -3 28 -22 -2 -16 -12 -24 -33 -28
-31 -6 -29 -10 20 -35 12 -7 20 -21 20 -37 0 -14 3 -30 8 -34 4 -4 7 -18 7
-30 0 -16 -7 -24 -22 -26 -16 -2 -24 -10 -25 -28 -6 -72 -8 -75 -42 -86 -21
-7 -29 -13 -20 -16 27 -10 0 -20 -58 -20 -47 -1 -54 -3 -35 -11 12 -6 22 -15
22 -22 0 -7 10 -17 23 -23 21 -10 21 -11 -10 -17 -66 -15 -68 -55 -2 -55 28 0
39 -4 39 -15 0 -10 -10 -15 -30 -15 -23 0 -28 -3 -23 -16 5 -14 2 -16 -23 -10
-20 5 -25 4 -14 -3 12 -8 12 -11 -4 -17 -18 -7 -18 -8 0 -21 17 -12 17 -13 -5
-13 -12 0 -20 -4 -17 -9 8 -12 -13 -28 -49 -37 l-30 -8 34 -6 c46 -7 48 -22 6
-44 -38 -21 -45 -36 -18 -36 27 0 0 -21 -39 -30 -30 -7 -29 -8 19 -9 58 -1 77
-16 40 -30 -47 -18 -35 -26 31 -23 63 3 66 3 50 -14 -9 -10 -38 -19 -67 -22
-60 -5 -74 -18 -32 -27 20 -4 28 -11 24 -21 -3 -8 1 -14 8 -14 8 0 1 -11 -16
-24 -28 -23 -29 -26 -13 -38 18 -13 15 -58 -4 -58 -5 0 -7 -8 -3 -19 3 -10 -1
-24 -10 -31 -9 -8 -13 -21 -9 -32 4 -13 -1 -24 -13 -33 -20 -16 -6 -19 29 -6
43 16 98 22 98 11 0 -5 -9 -10 -20 -10 -22 0 -27 -16 -8 -22 7 -3 -9 -17 -35
-32 -47 -28 -60 -46 -32 -46 28 0 15 -18 -20 -30 -41 -13 -39 -30 2 -22 25 5
27 4 14 -11 -11 -15 -11 -17 1 -17 8 0 23 7 34 15 22 17 74 20 74 4 0 -5 -15
-16 -33 -24 -19 -8 -39 -21 -46 -29 -10 -12 -8 -15 11 -18 22 -3 21 -5 -9 -21
-37 -19 -44 -47 -13 -47 11 0 20 6 20 13 0 9 2 9 9 -1 10 -16 -10 -80 -28 -92
-9 -5 -5 -9 11 -14 l23 -6 -27 -21 c-40 -30 -36 -43 12 -35 45 7 49 0 21 -35
-26 -34 -33 -97 -8 -83 9 6 9 4 -1 -8 -10 -13 -10 -17 0 -21 10 -4 11 -7 1
-18 -23 -23 -14 -30 18 -14 33 18 57 11 25 -7 -14 -8 -15 -12 -6 -18 12 -8 17
-68 8 -115 -3 -21 -1 -22 47 -11 l30 8 -27 -29 c-19 -20 -25 -36 -23 -57 2
-16 -3 -35 -11 -43 -16 -17 -19 -43 -3 -43 6 0 19 5 30 11 30 16 53 4 39 -20
-6 -13 -7 -22 0 -26 10 -6 6 -117 -5 -135 -3 -5 1 -10 11 -10 14 0 15 -7 10
-40 -5 -32 -3 -40 9 -40 8 0 15 -9 15 -20 0 -11 7 -23 15 -26 15 -6 14 -38 -1
-95 -3 -10 3 -18 15 -22 21 -5 26 -41 8 -64 -6 -8 0 -21 20 -40 38 -36 41 -96
6 -101 -39 -6 -29 -44 18 -74 33 -21 42 -62 41 -188 -3 -194 -4 -205 -17 -187
-7 9 -17 17 -24 17 -6 0 -11 5 -11 12 0 29 -108 151 -225 255 -57 50 -138 85
-156 66 -4 -4 -1 -44 7 -88 13 -76 17 -96 43 -210 16 -67 52 -131 74 -127 9 2
17 -1 17 -6 0 -5 12 -15 28 -22 15 -7 22 -15 14 -17 -19 -7 -3 -23 24 -23 17
0 27 8 34 24 5 13 14 27 19 31 6 3 11 20 11 36 0 36 24 48 49 25 10 -9 21 -16
24 -16 4 0 22 -17 41 -37 19 -21 37 -35 41 -32 9 10 16 47 26 145 5 51 16 125
24 165 8 41 22 115 30 164 7 50 21 124 30 165 8 41 20 100 26 130 13 72 36
131 59 152 10 10 22 38 25 63 4 25 11 45 15 45 4 0 10 8 14 18 6 18 27 54 37
62 19 16 70 143 76 188 3 29 10 55 14 58 5 3 9 22 9 43 0 21 7 58 16 82 10 29
14 61 10 92 -5 50 9 97 29 97 14 0 6 53 -13 103 -18 43 -15 192 3 240 4 10 5
30 2 46 -3 15 -3 38 0 51 5 20 11 22 54 18 42 -4 47 -3 37 10 -10 11 -9 17 6
28 16 12 17 15 3 28 -8 8 -17 13 -20 10 -3 -3 -3 3 0 15 3 14 0 23 -11 27 -9
3 -16 12 -16 19 0 8 -7 21 -16 29 -9 10 -11 16 -4 16 16 0 2 130 -16 151 -8 8
-14 20 -14 25 0 17 25 64 33 64 20 0 45 46 40 71 -4 19 0 28 14 33 18 8 126
18 196 19 21 1 37 6 37 13 0 6 15 28 33 48 34 37 57 40 82 10 17 -20 55 -28
55 -10 0 8 -7 19 -16 24 -9 5 -14 18 -12 28 2 14 13 20 41 22 21 2 37 -1 37
-7 0 -17 17 -13 24 5 3 8 2 13 -3 10 -10 -7 -20 14 -14 29 2 6 19 9 38 7 19
-2 35 0 35 5 0 5 18 17 40 27 22 10 40 23 40 31 0 7 7 16 16 19 24 9 54 7 54
-4 0 -5 7 -7 15 -4 8 4 15 13 15 20 0 17 27 29 98 43 35 7 72 25 108 51 30 23
60 40 67 39 6 -1 24 4 40 11 20 10 33 11 50 2 12 -6 37 -14 55 -17 40 -8 52
-31 26 -50 -18 -14 -18 -14 6 -14 14 0 43 3 65 8 22 4 52 4 66 1 16 -5 33 -2
44 6 22 17 92 19 97 3 2 -7 20 -2 48 12 51 27 146 37 179 20 17 -9 30 -9 56 0
41 15 42 19 15 39 -11 8 -20 25 -20 38 0 24 -1 24 -57 17 -32 -4 -65 -9 -73
-10 -98 -12 -128 -18 -147 -27 -30 -15 -53 -3 -53 27 0 14 -6 25 -13 25 -19 0
-73 28 -87 45 -18 22 -5 45 30 51 19 4 42 21 61 46 l31 39 19 -22 18 -21 7 27
c6 24 10 27 41 22 30 -5 35 -3 44 20 8 22 14 25 39 19 27 -5 30 -2 38 27 11
42 41 46 85 13 41 -31 47 -32 40 -5 -5 17 -2 20 18 17 32 -4 54 -50 39 -78 -8
-16 -8 -22 3 -26 20 -7 30 -63 15 -81 -9 -11 -6 -19 17 -39 31 -27 50 -31 42
-10 -3 8 1 17 9 20 25 10 34 7 34 -10 0 -12 6 -15 23 -10 83 25 191 32 208 13
12 -13 17 -12 43 10 25 20 35 23 70 17 23 -3 48 -10 56 -14 9 -5 30 -10 48
-12 17 -2 39 -13 47 -23 15 -20 16 -20 13 0 -4 30 28 71 44 57 7 -5 30 -13 51
-17 42 -8 90 -42 81 -56 -3 -6 3 -13 15 -16 12 -3 21 -9 21 -13 0 -11 -61 -39
-75 -34 -6 3 -12 -2 -12 -11 0 -9 10 -21 23 -25 12 -5 24 -15 26 -22 3 -9 33
-15 94 -18 49 -4 105 -13 124 -22 56 -26 68 -28 74 -13 3 10 19 13 56 10 56
-4 80 -18 80 -45 0 -26 28 -45 110 -73 60 -20 113 -28 265 -39 116 -9 192 -10
196 -5 4 6 12 6 20 1 8 -5 50 -14 94 -20 117 -16 199 -35 206 -46 9 -14 164
-11 188 4 17 10 23 9 39 -10 11 -12 35 -25 53 -28 42 -8 69 -21 92 -45 9 -10
24 -16 33 -12 9 3 21 -3 30 -16 8 -11 22 -21 30 -21 8 0 14 -4 14 -10 0 -5 6
-10 13 -10 7 0 43 -30 81 -66 55 -53 67 -70 63 -90 -3 -18 5 -34 34 -62 26
-27 36 -45 33 -59 -4 -14 11 -33 55 -73 34 -30 61 -60 61 -66 0 -18 51 -59 69
-56 11 2 31 -12 49 -33 17 -19 35 -35 40 -35 13 0 36 -29 38 -48 2 -9 9 -27
16 -41 10 -19 11 -25 0 -29 -8 -2 -4 -11 13 -24 14 -11 25 -28 25 -39 0 -14 7
-19 25 -19 21 0 25 -5 25 -30 0 -16 4 -30 9 -30 5 0 23 -14 40 -32 30 -31 42
-68 21 -68 -5 0 -10 -9 -10 -19 0 -11 5 -23 10 -26 6 -3 10 -17 10 -29 0 -13
7 -29 15 -36 17 -14 19 -38 5 -60 -9 -13 -11 -13 -20 0 -7 11 -10 4 -10 -27 0
-37 -3 -43 -22 -45 -42 -3 -58 2 -78 22 -11 11 -30 22 -42 24 -58 12 -135 15
-163 6 -16 -5 -42 -12 -57 -15 -16 -3 -28 -12 -28 -19 0 -10 -14 -14 -52 -13
-33 1 -53 -2 -55 -10 -3 -7 -11 -13 -18 -13 -8 0 -18 -6 -22 -13 -12 -20 -97
-40 -138 -33 -38 7 -43 2 -21 -23 13 -14 9 -16 -36 -17 -27 -1 -53 -5 -57 -10
-3 -5 -17 -10 -31 -11 -37 -2 -59 -8 -72 -21 -7 -7 -31 -12 -54 -12 -25 0 -49
-6 -58 -15 -8 -8 -30 -15 -48 -16 -127 -2 -242 -9 -255 -13 -10 -4 -13 -2 -10
8 3 8 -4 18 -18 24 -19 9 -28 7 -48 -12 -13 -12 -29 -31 -35 -41 -6 -11 -13
-17 -16 -14 -4 3 3 17 13 31 15 19 17 28 9 36 -18 18 -52 14 -71 -8 -30 -35
-54 -18 -48 34 2 18 -1 26 -8 22 -6 -4 -11 -14 -11 -22 0 -8 -4 -14 -9 -14 -5
0 -11 -8 -13 -18 -3 -12 -16 -18 -38 -20 -19 -1 -39 -7 -46 -13 -10 -8 -22 -6
-45 5 -39 19 -39 19 -39 4 0 -20 -61 -52 -102 -53 -21 -1 -45 -9 -56 -18 -11
-10 -26 -14 -41 -10 -22 5 -23 3 -19 -21 3 -14 1 -29 -3 -32 -5 -3 -9 0 -9 5
0 24 -32 9 -43 -19 -6 -16 -15 -30 -18 -30 -4 0 -15 -7 -23 -16 -9 -8 -16 -11
-16 -5 0 24 -21 8 -41 -31 -18 -35 -23 -40 -33 -26 -9 12 -22 14 -61 9 -68 -9
-78 -17 -72 -56 6 -35 -6 -65 -17 -46 -4 6 -12 11 -17 11 -6 0 -7 -6 -2 -12 4
-7 8 -31 9 -53 1 -22 0 -30 -3 -17 l-4 23 -25 -23 c-17 -16 -24 -34 -24 -60 0
-21 4 -38 9 -38 10 0 71 -58 71 -68 0 -4 20 -13 45 -20 45 -12 46 -13 40 -46
-5 -24 -2 -42 10 -60 12 -18 15 -36 11 -61 -4 -22 -2 -47 7 -68 17 -38 21
-133 7 -142 -13 -8 -13 -62 0 -70 13 -8 13 -56 0 -91 -7 -19 -7 -73 1 -176 8
-113 8 -156 0 -175 -13 -28 -5 -75 9 -53 6 9 10 6 15 -10 4 -12 2 -27 -4 -33
-14 -14 -14 -94 0 -103 6 -3 8 -17 4 -31 -3 -14 -1 -31 6 -39 9 -11 9 -17 -1
-29 -8 -10 -10 -36 -5 -87 6 -66 10 -75 33 -86 22 -10 29 -10 41 3 12 12 13
18 3 27 -9 9 -12 8 -13 -8 -1 -10 -5 6 -10 36 -4 32 -4 59 2 64 5 6 9 32 9 58
0 41 3 48 20 48 14 0 20 7 20 23 0 13 9 32 20 42 19 17 21 17 40 0 19 -17 21
-17 40 0 15 14 23 15 33 6 17 -13 27 -5 27 23 0 23 40 86 56 86 11 0 54 -54
54 -68 0 -5 9 -17 19 -26 23 -21 37 -6 21 24 -6 11 -8 24 -5 29 10 17 65 -20
81 -55 16 -34 32 -40 87 -35 9 1 17 -4 17 -13 0 -9 7 -16 15 -16 8 0 15 -9 15
-19 0 -24 46 -41 111 -41 26 0 49 -5 51 -10 4 -14 106 -24 152 -16 32 6 35 10
30 31 -3 14 -2 25 4 25 21 0 30 -27 25 -77 -6 -53 -6 -53 -42 -54 -24 -1 -17
-4 24 -8 33 -4 62 -3 63 1 2 4 17 8 33 8 21 0 29 5 29 18 0 23 19 42 41 42 10
0 20 6 22 13 4 9 8 8 16 -3 8 -12 13 -12 23 -2 17 17 58 15 79 -4 22 -20 59
-10 59 17 0 24 5 24 38 0 29 -19 80 -36 97 -31 6 1 23 2 40 1 16 -1 41 3 56
10 21 8 33 8 51 -2 12 -7 43 -11 68 -10 34 1 55 -4 81 -22 57 -39 63 -41 54
-27 -7 11 12 12 99 8 58 -3 112 -11 119 -16 13 -11 174 -9 280 4 47 6 57 4 57
-8 0 -19 63 -33 86 -20 25 14 45 80 44 144 -1 57 14 83 31 57 6 -9 7 -3 3 16
-4 17 -14 35 -23 42 -11 8 -12 12 -3 13 18 0 16 80 -2 80 -11 0 -15 23 -18
106 -2 80 -7 108 -18 117 -26 19 -54 88 -40 97 15 9 -19 79 -39 80 -10 0 -12
12 -9 50 5 47 3 52 -23 71 -34 24 -37 39 -9 39 18 0 20 7 20 58 0 32 -5 63
-11 69 -9 9 -4 18 16 37 27 26 28 27 9 41 -16 12 -17 14 -3 15 18 0 36 30 19
30 -6 0 -9 13 -8 28 1 15 -1 33 -5 39 -4 6 -3 14 3 18 15 9 12 35 -5 35 -9 0
-12 6 -9 15 4 10 0 15 -11 15 -15 0 -15 2 -4 16 11 13 15 14 23 2 6 -8 18 -17
27 -20 15 -6 15 -1 6 35 -5 23 -14 46 -18 52 -5 5 -9 17 -9 26 0 10 -6 20 -12
22 -17 7 10 27 27 20 8 -2 15 7 17 24 3 15 9 36 13 46 5 12 3 17 -8 17 -8 0
-17 -6 -20 -12 -2 -7 -11 2 -21 20 -18 35 -14 41 11 16 9 -8 24 -13 34 -11 11
3 19 0 19 -6 0 -6 2 -8 5 -5 3 2 0 19 -6 36 -8 22 -18 32 -32 33 -22 0 -22 0
1 9 25 10 47 4 72 -19 9 -9 26 -22 38 -30 16 -11 19 -18 10 -28 -7 -9 -7 -13
1 -13 6 0 11 -10 11 -22 0 -69 11 -189 20 -212 5 -15 14 -108 20 -207 5 -99
13 -185 16 -191 4 -6 10 -65 15 -132 4 -66 13 -143 18 -171 12 -57 25 -213 46
-522 12 -184 12 -221 0 -262 -24 -80 -39 -321 -21 -333 8 -6 8 -10 -1 -16 -6
-4 -14 -25 -18 -47 -3 -22 -8 -50 -11 -63 -3 -17 2 -25 23 -33 16 -7 23 -13
16 -16 -7 -3 -13 -14 -13 -26 0 -20 1 -20 14 5 23 44 37 128 31 192 -3 35 -2
53 3 42 6 -13 13 8 26 75 10 52 22 99 27 105 5 6 11 38 14 70 22 284 67 513
139 712 18 47 30 108 36 178 5 57 12 108 14 113 8 13 46 319 46 372 0 27 -3
49 -7 49 -5 0 -23 -9 -40 -20 -38 -23 -42 -19 -13 13 12 12 27 34 35 49 13 27
12 29 -28 64 -44 37 -55 39 -171 22 -24 -4 -42 24 -31 48 4 11 7 36 6 57 -2
20 1 37 6 37 13 0 45 81 39 97 -7 17 20 47 34 38 5 -3 10 1 10 9 0 8 -4 17 -8
20 -4 3 -6 21 -4 41 3 28 7 33 17 25 10 -8 15 -8 20 1 4 6 1 16 -6 21 -11 7
-11 11 -1 15 6 2 12 17 12 31 l1 27 21 -25 21 -25 -8 25 c-19 61 -3 197 19
161 11 -17 29 -13 22 4 -3 8 -1 15 4 15 6 0 10 -5 10 -12 0 -6 2 -9 4 -7 5 5
-16 89 -26 105 -4 5 -5 19 -3 30 2 10 4 22 4 27 1 4 11 7 24 7 20 1 20 2 5 11
-21 12 -24 34 -5 26 10 -4 13 2 9 19 -2 13 1 25 7 25 6 1 16 3 21 4 6 1 15 3
21 4 16 2 2 120 -17 138 -8 8 -14 20 -14 26 0 7 4 6 10 -3 8 -13 10 -13 10 2
0 9 5 18 11 20 8 3 6 16 -5 42 -22 53 -21 55 23 62 l38 6 -18 51 c-23 63 -24
88 -4 81 16 -7 14 21 -5 57 -7 12 -13 34 -15 48 -12 135 -19 171 -31 171 -13
0 -30 37 -21 47 9 8 27 -7 27 -23 0 -27 18 -14 22 16 3 20 0 30 -8 30 -16 0
-34 32 -34 60 0 21 36 81 52 88 4 2 8 9 8 15 0 6 -10 2 -22 -9 -49 -42 -55
-46 -61 -30 -7 18 20 49 34 41 15 -10 10 5 -12 42 -15 23 -22 54 -24 100 -2
39 -8 69 -15 73 -10 6 -7 12 9 21 24 16 28 49 6 49 -8 0 -15 7 -15 15 0 8 5
15 10 15 6 0 10 7 10 15 0 14 4 13 33 -2 41 -21 57 -24 57 -10 0 21 -15 36
-40 40 -22 4 -42 27 -23 27 12 0 11 40 -2 40 -5 0 1 9 15 20 15 11 34 17 47
14 28 -8 51 5 32 17 -25 16 11 28 78 25 47 -2 63 0 63 10 0 7 -9 18 -20 24
-27 14 -25 28 7 53 44 35 93 67 102 67 5 0 20 15 33 33 14 17 59 50 99 71 83
44 155 93 184 127 14 17 9 14 -20 -8 -50 -39 -129 -83 -148 -83 -8 0 -20 -7
-27 -15 -7 -8 -19 -15 -27 -15 -12 0 -11 6 5 33 11 17 43 77 71 131 56 109 78
139 97 132 14 -5 24 15 24 48 0 12 23 69 51 126 54 111 65 140 105 285 31 116
40 223 25 311 -14 76 -57 176 -98 225 -29 34 -131 104 -140 96 -3 -3 10 -13
27 -22 80 -41 143 -131 166 -238 15 -68 16 -89 4 -180 -15 -122 -35 -204 -66
-272 -13 -27 -28 -68 -34 -91 -6 -26 -24 -53 -47 -75 -21 -19 -47 -48 -59 -64
-17 -25 -24 -28 -36 -18 -8 7 -18 10 -21 6 -10 -10 -8 22 3 51 8 21 16 26 45
26 34 0 35 1 29 28 -9 36 -9 36 -32 12 -38 -41 -35 4 9 138 9 26 19 40 26 37
10 -3 13 10 13 48 0 29 3 96 7 149 l6 97 -28 -5 c-24 -4 -26 -2 -19 13 15 32
7 97 -16 136 -13 21 -19 44 -16 54 4 9 4 48 0 86 -7 67 -7 69 -21 43 -19 -35
-31 -33 -39 9 -3 19 -12 39 -20 46 -8 6 -14 20 -14 30 0 10 -6 22 -14 26 -7 4
-28 29 -45 55 -18 26 -36 50 -41 53 -13 8 -37 63 -45 103 -7 36 -21 42 -30 12
-6 -19 -8 -19 -50 10 -24 16 -54 30 -67 30 -22 -1 -22 -1 7 -23 16 -12 38 -27
50 -32 12 -6 20 -21 20 -34 0 -14 6 -26 13 -28 6 -3 12 0 12 7 0 6 5 8 11 5 6
-4 8 -13 5 -21 -3 -7 1 -26 9 -41 17 -31 19 -61 6 -81 -6 -11 -16 -8 -45 12
-21 14 -46 36 -57 51 -11 14 -25 25 -30 25 -16 0 -10 -42 9 -56 9 -7 13 -13 7
-14 -5 0 -23 11 -40 24 -27 22 -29 27 -17 46 11 19 10 24 -12 41 -28 22 -76
100 -76 124 0 10 -10 30 -22 45 -49 61 -57 74 -63 102 -4 17 -18 34 -33 42
-15 8 -37 25 -49 38 -24 26 -86 141 -103 192 -11 35 -36 49 -77 46 -23 -1 -38
14 -28 30 5 8 11 7 21 -1 12 -10 13 -6 8 20 -7 33 5 41 26 16 7 -8 22 -15 33
-15 18 0 12 8 -28 45 -38 34 -56 43 -75 40 -35 -7 -49 5 -52 44 -3 35 -4 36
-109 115 -60 44 -87 58 -99 51 -5 -3 -26 4 -47 15 -21 11 -45 20 -55 20 -9 0
-26 12 -38 27 -16 20 -29 27 -52 25 -16 -1 -44 5 -61 13 -17 9 -43 13 -57 10
-14 -3 -45 -2 -70 3 -50 8 -61 32 -20 43 24 7 24 7 3 8 -20 1 -23 7 -23 38 0
34 -1 35 -18 20 -10 -10 -24 -17 -30 -17 -6 0 -28 -11 -48 -25 -20 -14 -40
-22 -45 -19 -5 3 -9 0 -9 -5 0 -6 -7 -11 -16 -11 -10 0 -14 6 -11 14 6 14 -31
56 -49 56 -28 0 -218 186 -201 197 7 5 -6 10 -33 14 -37 6 -47 4 -59 -12 -7
-10 -21 -19 -29 -19 -11 0 -13 3 -6 10 5 5 8 26 6 45 l-4 35 -209 0 c-194 0
-209 -1 -209 -18 0 -16 -73 -82 -92 -82 -11 0 9 48 27 66 8 9 15 20 15 25 0
13 -44 11 -59 -3 -10 -10 -15 -10 -18 -1 -3 8 -51 12 -161 12 l-157 2 -52 -56
c-29 -31 -61 -55 -72 -55 -11 0 -24 -6 -28 -14 -10 -18 -103 -76 -121 -76 -10
0 -12 11 -6 48 3 26 10 54 14 62 4 8 5 32 3 53 -5 33 -8 37 -33 37 -27 0 -28
-2 -35 -67z m335 -21 c0 -13 -39 -46 -46 -40 -8 9 19 48 33 48 7 0 13 -4 13
-8z m950 -41 c0 -5 -7 -12 -16 -15 -22 -9 -24 -8 -24 9 0 8 9 15 20 15 11 0
20 -4 20 -9z m-208 -23 c-7 -7 -12 -8 -12 -2 0 14 12 26 19 19 2 -3 -1 -11 -7
-17z m-21 -30 c10 -13 18 -33 19 -45 0 -24 -15 -31 -23 -10 -7 21 -22 -3 -22
-36 0 -29 -3 -32 -32 -35 -27 -3 -33 0 -33 16 0 12 9 22 23 26 19 6 20 8 6 19
-16 13 -10 35 20 71 17 21 19 20 42 -6z m259 7 c0 -11 -11 -15 -42 -15 -40 1
-42 2 -24 15 26 20 66 19 66 0z m68 -13 c3 -9 -3 -13 -19 -10 -12 1 -24 9 -27
16 -3 9 3 13 19 10 12 -1 24 -9 27 -16z m-91 -58 c4 -10 -1 -22 -10 -29 -22
-16 -22 -39 -1 -31 19 7 54 -20 54 -41 0 -18 -25 -17 -40 2 -17 21 -30 19 -30
-5 0 -11 5 -20 10 -20 6 0 10 -6 10 -14 0 -7 9 -16 20 -19 13 -3 20 0 20 9 0
21 20 17 42 -8 18 -21 18 -23 2 -35 -10 -7 -25 -13 -33 -14 -10 0 -7 -4 7 -10
33 -13 27 -54 -8 -54 -21 0 -25 5 -25 28 1 19 -4 27 -17 27 -13 0 -18 8 -18
30 0 17 -5 30 -13 30 -15 0 -52 113 -43 129 4 6 14 11 22 11 8 0 14 7 14 15 0
20 29 19 37 -1z m137 -8 c26 -23 34 -46 17 -46 -5 0 -18 11 -29 25 -12 15 -30
25 -46 25 -14 0 -26 5 -26 10 0 20 59 10 84 -14z m-46 -12 c12 -4 22 -14 22
-23 0 -17 65 -83 93 -94 42 -16 1 -56 -43 -42 -26 8 -70 62 -70 86 0 12 -7 19
-20 19 -17 0 -40 32 -40 56 0 6 31 5 58 -2z m-1023 -34 c-3 -5 -10 -10 -16
-10 -5 0 -9 5 -9 10 0 6 7 10 16 10 8 0 12 -4 9 -10z m1358 -6 c3 -3 3 -12 0
-20 -4 -11 -9 -12 -19 -3 -8 6 -11 15 -8 20 6 10 18 12 27 3z m-651 -86 c-9
-9 -12 -7 -12 12 0 19 3 21 12 12 9 -9 9 -15 0 -24z m-1121 -11 c-10 -9 -11
-8 -5 6 3 10 9 15 12 12 3 -3 0 -11 -7 -18z m1974 -20 c46 -26 59 -57 23 -57
-13 0 -32 7 -42 15 -11 8 -26 15 -35 15 -21 0 -91 32 -91 42 0 18 105 7 145
-15z m-860 -44 c-6 -16 -8 -16 -16 5 -4 12 -5 30 -2 39 6 15 8 14 16 -5 5 -11
6 -29 2 -39z m-265 18 c0 -11 3 -26 6 -34 3 -9 -3 -24 -14 -35 -11 -11 -23
-29 -27 -41 -10 -33 -25 -25 -25 14 0 28 -3 33 -16 28 -12 -4 -15 -2 -12 8 3
8 12 13 21 11 11 -2 22 10 31 33 16 38 36 47 36 16z m1035 -36 c32 -30 55 -58
52 -62 -9 -8 -87 15 -87 26 0 5 -13 11 -30 15 -16 3 -30 10 -30 15 0 19 20 61
28 61 5 0 35 -25 67 -55z m-620 15 c-3 -5 -11 -10 -16 -10 -6 0 -7 5 -4 10 3
6 11 10 16 10 6 0 7 -4 4 -10z m805 6 c0 -3 -4 -8 -10 -11 -5 -3 -10 -1 -10 4
0 6 5 11 10 11 6 0 10 -2 10 -4z m-1047 -30 c7 -17 -18 -41 -32 -32 -5 4 -12
2 -15 -3 -4 -5 -2 -13 4 -16 8 -5 7 -11 -1 -21 -20 -25 -29 -15 -29 32 0 41 2
46 20 41 11 -3 23 -1 26 4 8 13 21 11 27 -5z m1113 -23 c-7 -7 -26 7 -26 19 0
6 6 6 15 -2 9 -7 13 -15 11 -17z m-876 7 c0 -5 -4 -10 -10 -10 -5 0 -10 5 -10
10 0 6 5 10 10 10 6 0 10 -4 10 -10z m-70 -10 c0 -5 -5 -10 -11 -10 -5 0 -7 5
-4 10 3 6 8 10 11 10 2 0 4 -4 4 -10z m-103 -32 c-3 -8 -6 -5 -6 6 -1 11 2 17
5 13 3 -3 4 -12 1 -19z m206 8 c3 -8 -1 -20 -9 -27 -13 -10 -17 -10 -25 2 -5
8 -9 20 -9 27 0 17 37 15 43 -2z m-55 -54 c2 -15 -5 -25 -27 -37 -29 -14 -30
-14 -25 2 20 62 46 79 52 35z m802 9 c14 -27 13 -31 -9 -31 -10 0 -21 7 -25
15 -3 8 -15 15 -26 15 -11 0 -20 5 -20 10 0 6 16 10 35 10 24 0 37 -6 45 -19z
m281 9 c10 -6 19 -17 19 -24 0 -8 7 -19 15 -26 8 -7 13 -16 10 -20 -3 -4 2
-13 10 -20 20 -17 19 -30 -4 -30 -20 0 -45 23 -34 33 3 4 -2 9 -11 13 -9 3
-16 12 -16 19 0 7 -9 24 -21 39 -18 22 -18 26 -4 26 9 0 25 -5 36 -10z m-574
-42 c-3 -8 -6 -5 -6 6 -1 11 2 17 5 13 3 -3 4 -12 1 -19z m83 12 c0 -5 6 -10
14 -10 22 0 85 -40 97 -61 5 -11 16 -19 23 -19 31 0 61 -82 37 -100 -3 -3 -17
-22 -31 -42 -14 -21 -30 -38 -36 -38 -13 0 -24 23 -24 51 0 10 -4 19 -10 19
-5 0 -10 -7 -10 -15 0 -7 -8 -18 -17 -24 -16 -8 -15 -12 10 -31 35 -28 34 -45
-4 -81 -39 -37 -52 -36 -66 1 -9 24 -9 33 3 45 13 12 12 17 -6 35 -16 16 -20
29 -15 50 3 16 2 31 -4 35 -7 4 -5 14 5 31 16 23 15 24 -5 24 -11 0 -21 6 -21
13 0 28 13 57 25 57 22 0 25 39 4 45 -27 9 -23 25 6 25 14 0 25 -4 25 -10z
m-370 -30 c0 -11 -7 -20 -15 -20 -27 0 -18 30 13 39 1 1 2 -8 2 -19z m705 10
c3 -5 1 -10 -4 -10 -6 0 -11 5 -11 10 0 6 2 10 4 10 3 0 8 -4 11 -10z m-1140
-30 c3 -5 -1 -10 -10 -10 -9 0 -13 5 -10 10 3 6 8 10 10 10 2 0 7 -4 10 -10z
m623 -48 c3 -45 -10 -55 -28 -21 -14 25 -4 72 13 66 7 -2 13 -22 15 -45z
m-232 12 c-3 -9 -6 -18 -6 -20 0 -2 -7 -4 -15 -4 -13 0 -14 4 -5 20 13 24 35
27 26 4z m1094 -29 c11 -13 10 -18 -6 -30 -26 -19 -38 -14 -42 18 -3 21 1 27
16 27 11 0 25 -7 32 -15z m-340 -48 c12 -21 12 -29 2 -39 -10 -10 -14 -8 -18
10 -4 12 -10 22 -15 22 -5 0 -9 9 -9 21 0 27 21 20 40 -14z m138 -43 c14 -41
28 -61 37 -52 3 3 -3 22 -14 42 -22 39 -18 45 16 21 24 -17 32 -98 8 -89 -16
7 -29 -12 -15 -21 6 -4 8 -11 4 -16 -9 -16 -34 11 -34 37 0 13 -11 35 -25 50
-24 26 -32 54 -18 68 13 13 28 -1 41 -40z m-965 -15 c-21 -36 -36 -42 -41 -16
-5 24 15 47 40 47 19 0 19 -1 1 -31z m660 -31 c-15 -46 -38 -76 -49 -65 -4 4
-2 17 5 29 36 67 43 78 50 78 5 0 2 -19 -6 -42z m70 -5 c24 -47 29 -83 15
-114 -16 -35 -42 -37 -81 -5 -31 25 -30 30 12 104 14 23 28 42 33 42 4 0 14
-12 21 -27z m427 -29 c0 -12 3 -31 7 -41 6 -15 4 -16 -9 -5 -23 18 -41 69 -33
89 6 17 7 17 21 -1 8 -11 14 -30 14 -42z m-4880 -54 c0 -5 -9 -14 -20 -20 -11
-6 -20 -17 -20 -26 0 -8 -6 -17 -14 -20 -8 -3 -13 -11 -10 -19 5 -12 -61 -45
-91 -45 -8 0 -23 -9 -32 -20 -10 -11 -26 -20 -36 -20 -10 0 -35 -14 -57 -31
-24 -19 -46 -29 -61 -27 l-24 3 23 23 c12 12 21 25 20 30 -1 4 7 9 18 11 26 5
65 48 58 65 -6 15 32 56 51 56 6 0 26 11 45 25 27 18 48 24 93 25 31 0 57 -4
57 -10z m4310 -38 c0 -20 -67 -85 -80 -77 -8 5 -5 15 9 29 12 12 21 27 21 32
0 15 19 31 35 31 8 0 15 -7 15 -15z m70 -36 c0 -8 -7 -19 -15 -26 -12 -10 -16
-8 -25 15 -6 15 -8 31 -4 36 7 12 44 -8 44 -25z m597 -8 c29 -37 19 -108 -14
-108 -21 1 -53 23 -53 37 0 6 -6 16 -14 22 -12 10 -15 7 -18 -15 -2 -15 -9
-29 -16 -32 -21 -7 -2 50 25 76 l25 23 20 -26 c11 -14 23 -24 26 -21 2 3 -1
12 -7 20 -13 15 -7 36 8 36 5 0 13 -6 18 -12z m-660 -56 c-8 -9 -18 -28 -22
-42 -8 -25 -8 -25 14 -6 21 19 21 19 21 0 0 -11 -5 -25 -12 -32 -22 -22 -44
-13 -62 24 -17 36 -16 37 6 61 12 13 28 21 35 19 8 -3 13 2 13 12 1 15 2 15
11 -1 8 -14 7 -23 -4 -35z m517 -27 c-11 -27 -24 -5 -24 38 l1 42 14 -33 c8
-18 12 -39 9 -47z m-444 16 c0 -9 -22 -31 -30 -31 -5 0 -6 35 -1 47 2 5 31
-10 31 -16z m-550 -21 c0 -5 -9 -10 -21 -10 -11 0 -17 5 -14 10 3 6 13 10 21
10 8 0 14 -4 14 -10z m590 -22 c0 -6 -8 -17 -17 -25 -10 -8 -12 -12 -5 -8 6 3
12 1 12 -5 0 -7 -8 -9 -21 -5 -13 5 -25 2 -30 -6 -4 -7 -11 -11 -14 -7 -9 9
56 79 66 72 5 -3 9 -10 9 -16z m-3268 -110 c-23 -23 -44 -39 -47 -36 -4 3 13
24 37 46 56 53 65 44 10 -10z m3243 33 c3 -5 -6 -22 -20 -38 -24 -27 -26 -27
-39 -10 -13 16 -12 21 2 38 17 20 47 25 57 10z m289 -143 c-14 -26 -37 -47
-44 -43 -4 2 -5 16 -2 30 3 19 11 25 29 25 16 0 22 -4 17 -12z m-3294 -1 c0
-2 -12 -14 -27 -28 l-28 -24 24 28 c23 25 31 32 31 24z m3575 -47 c3 -5 1 -10
-4 -10 -6 0 -11 5 -11 10 0 6 2 10 4 10 3 0 8 -4 11 -10z m-5295 -14 c0 -2 -9
-6 -20 -9 -11 -3 -18 -1 -14 4 5 9 34 13 34 5z m5172 -78 c-7 -7 -12 -8 -12
-2 0 14 12 26 19 19 2 -3 -1 -11 -7 -17z m715 -58 c11 -10 27 -42 37 -70 15
-41 16 -54 6 -63 -10 -9 -14 -9 -18 2 -3 8 -16 25 -30 38 -17 15 -26 37 -30
68 -5 50 6 58 35 25z m-149 -21 c7 -10 20 -19 28 -19 20 0 18 -14 -5 -34 -15
-14 -24 -15 -39 -7 -19 10 -52 63 -52 84 0 15 53 -3 68 -24z m-6180 -51 c-19
-39 -38 -50 -38 -23 0 23 -25 18 -38 -7 l-12 -23 3 25 c1 16 12 30 30 38 15 7
35 25 44 39 15 23 18 23 23 7 4 -9 -2 -35 -12 -56z m5962 30 c0 -33 -11 -68
-20 -68 -5 0 -7 12 -5 28 2 15 4 35 4 45 1 26 21 21 21 -5z m-300 9 c0 -2 -12
-14 -27 -28 l-28 -24 24 28 c23 25 31 32 31 24z m170 -17 c0 -5 -5 -10 -11
-10 -5 0 -7 5 -4 10 3 6 8 10 11 10 2 0 4 -4 4 -10z m-4550 -46 c-18 -21 -24
-10 -8 15 7 12 14 17 16 11 2 -6 -2 -17 -8 -26z m5156 -40 c3 -18 4 -39 2 -46
-7 -20 -25 20 -32 72 -6 42 -6 44 8 26 9 -11 19 -34 22 -52z m-776 16 c0 -5
-5 -10 -11 -10 -5 0 -7 5 -4 10 3 6 8 10 11 10 2 0 4 -4 4 -10z m-3305 -90
c-10 -11 -20 -18 -23 -16 -5 6 21 35 32 36 5 0 1 -9 -9 -20z m3949 -59 c26
-29 56 -121 56 -174 0 -52 -32 -127 -54 -127 -10 0 -15 23 -20 78 -4 43 -13
107 -20 142 -8 36 -10 66 -5 68 5 2 9 10 9 18 0 19 14 18 34 -5z m-126 -37
c-4 -35 -32 -39 -36 -6 -4 27 17 57 30 44 5 -5 8 -22 6 -38z m-5448 -14 c-6
-11 -15 -20 -20 -20 -6 0 -5 9 2 20 7 11 16 20 21 20 4 0 3 -9 -3 -20z m490
-8 c0 -5 -9 -17 -20 -27 -16 -14 -20 -15 -20 -4 0 16 19 39 32 39 4 0 8 -4 8
-8z m5340 -42 c0 -5 -4 -10 -10 -10 -5 0 -10 5 -10 10 0 6 5 10 10 10 6 0 10
-4 10 -10z m-330 -58 c0 -13 -4 -20 -10 -17 -5 3 -10 21 -10 38 0 24 3 28 10
17 5 -8 10 -25 10 -38z m-40 15 c0 -13 -3 -27 -7 -30 -3 -4 -7 -45 -7 -91 -1
-79 -13 -116 -37 -116 -12 0 -1 200 14 233 15 33 37 36 37 4z m80 -159 c0 -5
-4 -8 -10 -8 -5 0 -10 10 -10 23 0 18 2 19 10 7 5 -8 10 -18 10 -22z m-40 10
c0 -7 -5 -20 -10 -28 -8 -12 -10 -9 -10 13 0 15 5 27 10 27 6 0 10 -6 10 -12z
m326 -80 c-6 -36 -14 -69 -17 -73 -7 -6 0 131 7 155 5 13 6 13 14 0 4 -8 3
-45 -4 -82z m-4192 47 c-28 -22 -40 -18 -13 4 13 11 26 17 28 15 3 -2 -4 -11
-15 -19z m-194 -209 c0 -2 -13 -9 -30 -15 -35 -12 -41 -5 -7 9 25 10 37 12 37
6z m4210 -143 c0 -5 -5 -15 -10 -23 -8 -12 -10 -11 -10 8 0 12 5 22 10 22 6 0
10 -3 10 -7z m90 -105 c0 -25 -27 -58 -47 -58 -10 0 -9 9 7 40 22 44 40 52 40
18z m101 -56 c-11 -20 -29 -45 -40 -54 -12 -10 -21 -24 -21 -33 0 -22 -59 -85
-80 -85 -11 0 -21 -4 -24 -9 -4 -5 4 -7 16 -4 23 5 23 5 3 -10 -14 -12 -16
-16 -6 -17 10 0 5 -10 -14 -30 -35 -37 -42 -33 -19 12 12 24 13 30 3 22 -8 -6
-38 -14 -66 -17 -42 -5 -53 -3 -53 8 0 10 16 15 58 17 43 2 57 7 57 18 0 17 4
23 66 93 23 26 47 47 54 47 7 0 16 7 19 16 10 25 50 72 58 67 5 -2 -1 -21 -11
-41z m-276 -2 c-3 -5 -16 -15 -28 -21 -21 -10 -21 -9 2 10 25 23 36 27 26 11z
m-6971 -66 c8 -31 5 -37 -16 -29 -20 8 -42 50 -34 64 11 17 43 -5 50 -35z
m6996 37 c0 -5 -7 -12 -16 -15 -14 -5 -15 -4 -4 9 14 17 20 19 20 6z m25 -211
c3 -5 1 -10 -4 -10 -6 0 -11 5 -11 10 0 6 2 10 4 10 3 0 8 -4 11 -10z m-55
-27 c3 -3 -5 -12 -17 -20 -13 -9 -23 -19 -23 -24 0 -14 26 -10 39 5 7 8 27 19
44 25 30 10 29 8 -20 -37 -28 -26 -66 -56 -85 -66 l-33 -19 19 21 c27 31 17
34 -33 11 -60 -27 -77 -17 -21 11 50 25 102 81 82 88 -22 7 -1 23 21 16 12 -3
24 -9 27 -11z m-5024 -28 c-11 -8 -27 -15 -35 -15 -13 1 -12 4 3 15 11 8 27
15 35 15 13 -1 12 -4 -3 -15z m5134 -24 c0 -16 -34 -49 -57 -56 -30 -8 -29 3
4 37 26 27 53 37 53 19z m-4185 -46 c0 -5 -10 -11 -22 -13 -16 -2 -23 2 -23
13 0 11 7 15 23 13 12 -2 22 -7 22 -13z m4075 -74 c0 -5 -7 -11 -15 -15 -8 -3
-15 -12 -15 -21 0 -9 -15 -22 -34 -30 -19 -8 -38 -19 -41 -25 -5 -8 -11 -7
-21 1 -22 18 -17 28 21 35 33 6 49 23 23 25 -7 0 5 9 27 20 45 21 55 23 55 10z
m-5042 -36 c41 -17 56 -35 27 -35 -8 0 -19 -9 -25 -20 -6 -11 -15 -20 -21 -20
-5 0 -29 9 -51 20 -23 11 -51 20 -62 20 -21 1 -21 1 -2 15 15 11 23 12 33 3
10 -8 17 -8 25 0 9 9 9 12 -1 12 -11 0 -11 3 -1 15 7 9 18 14 24 12 6 -3 30
-13 54 -22z m-281 -61 c-3 -3 -12 -4 -19 -1 -8 3 -5 6 6 6 11 1 17 -2 13 -5z
m-113 -14 c7 0 12 -9 13 -20 2 -20 -3 -23 -79 -35 -40 -6 -51 8 -26 33 7 7 8
12 3 12 -6 0 -3 5 5 10 8 6 28 8 44 5 16 -3 34 -5 40 -5z m5344 -37 c2 -9 -7
-13 -27 -13 -30 0 -39 9 -24 24 11 10 46 3 51 -11z m-5403 -53 c3 -5 -1 -10
-10 -10 -9 0 -13 5 -10 10 3 6 8 10 10 10 2 0 7 -4 10 -10z m5155 -124 c0 -3
-4 -8 -10 -11 -5 -3 -10 -1 -10 4 0 6 5 11 10 11 6 0 10 -2 10 -4z m-6725
-1266 c3 -5 1 -10 -4 -10 -6 0 -11 5 -11 10 0 6 2 10 4 10 3 0 8 -4 11 -10z
m6065 -30 c0 -5 -2 -10 -4 -10 -3 0 -8 5 -11 10 -3 6 -1 10 4 10 6 0 11 -4 11
-10z m-135 -80 c-3 -5 -10 -10 -16 -10 -5 0 -9 5 -9 10 0 6 7 10 16 10 8 0 12
-4 9 -10z m-35 -14 c0 -8 -4 -18 -10 -21 -5 -3 -10 3 -10 14 0 12 5 21 10 21
6 0 10 -6 10 -14z m-1760 -226 c0 -5 -4 -10 -10 -10 -5 0 -10 5 -10 10 0 6 5
10 10 10 6 0 10 -4 10 -10z m2090 -150 c0 -11 -7 -20 -15 -20 -18 0 -19 6 -2
25 16 19 17 18 17 -5z m-2480 -600 c0 -5 -4 -10 -10 -10 -5 0 -10 5 -10 10 0
6 5 10 10 10 6 0 10 -4 10 -10z m2756 -348 c1 -25 -6 -28 -24 -10 -18 18 -15
40 6 36 9 -2 17 -13 18 -26z m-2676 -562 c0 -13 -7 -20 -20 -20 -19 0 -19 1
-3 20 10 11 19 20 20 20 2 0 3 -9 3 -20z m2223 -167 c-13 -2 -33 -2 -45 0 -13
2 -3 4 22 4 25 0 35 -2 23 -4z"/>
<path d="M9614 15275 c-19 -14 -18 -14 4 -15 13 0 22 6 22 15 0 19 -1 19 -26
0z"/>
<path d="M9070 15980 c0 -11 2 -20 5 -20 2 0 9 9 15 20 9 16 8 20 -5 20 -8 0
-15 -9 -15 -20z"/>
<path d="M9555 15816 c-9 -21 -14 -43 -11 -49 2 -7 5 -6 5 3 1 8 8 28 16 44 9
16 13 31 10 34 -2 3 -12 -12 -20 -32z"/>
<path d="M9795 15640 c3 -5 8 -10 11 -10 2 0 4 5 4 10 0 6 -5 10 -11 10 -5 0
-7 -4 -4 -10z"/>
<path d="M10220 15360 c0 -5 5 -10 11 -10 5 0 7 5 4 10 -3 6 -8 10 -11 10 -2
0 -4 -4 -4 -10z"/>
<path d="M6117 12970 c-3 -11 -3 -20 -1 -20 2 0 8 9 14 20 6 11 7 20 2 20 -6
0 -12 -9 -15 -20z"/>
<path d="M6036 12895 c-9 -26 -7 -32 5 -12 6 10 9 21 6 23 -2 3 -7 -2 -11 -11z"/>
<path d="M5577 12708 c-26 -29 -44 -54 -42 -57 12 -11 97 47 89 61 -3 4 0 8 5
8 6 0 11 9 11 20 0 31 -13 24 -63 -32z"/>
<path d="M5720 12700 c20 -13 33 -13 25 0 -3 6 -14 10 -23 10 -15 0 -15 -2 -2
-10z"/>
<path d="M3938 12653 c7 -3 16 -2 19 1 4 3 -2 6 -13 5 -11 0 -14 -3 -6 -6z"/>
<path d="M5462 12624 c-21 -15 -31 -44 -14 -44 10 0 52 43 52 53 0 11 -14 8
-38 -9z"/>
<path d="M10730 12511 c0 -5 7 -11 15 -15 8 -3 15 -1 15 3 0 5 -7 11 -15 15
-8 3 -15 1 -15 -3z"/>
<path d="M5345 12480 c-3 -5 -1 -10 4 -10 6 0 11 5 11 10 0 6 -2 10 -4 10 -3
0 -8 -4 -11 -10z"/>
<path d="M5090 11220 c-14 -11 -32 -20 -41 -20 -9 0 -24 -9 -35 -21 -10 -11
-26 -18 -36 -16 -20 6 -25 -18 -5 -26 6 -3 2 -6 -10 -6 -13 -1 -31 -15 -44
-33 -13 -18 -38 -51 -56 -72 -18 -22 -31 -47 -28 -55 2 -9 -4 -27 -15 -41 -12
-15 -20 -19 -20 -11 0 15 -12 9 -12 -6 0 -4 -7 -20 -16 -35 -21 -36 -45 -38
-36 -3 3 14 3 25 -1 25 -10 0 -35 -27 -35 -39 0 -5 -13 -18 -29 -27 -16 -10
-29 -25 -29 -33 0 -9 -3 -25 -6 -36 -7 -18 -6 -18 4 -2 6 9 16 17 22 17 6 0
-5 -17 -23 -37 -50 -56 -75 -117 -61 -148 10 -21 7 -34 -18 -84 -35 -71 -36
-75 -10 -68 25 6 25 6 -5 -29 -14 -16 -24 -36 -23 -44 4 -28 -12 -70 -27 -70
-18 0 -20 -16 -2 -27 6 -4 17 -18 24 -30 11 -19 9 -22 -14 -28 -31 -7 -20 -22
22 -27 l30 -4 -30 -13 c-27 -11 -29 -14 -12 -25 19 -15 23 -41 7 -51 -6 -4
-10 -30 -9 -59 1 -29 -1 -57 -4 -63 -4 -6 3 -19 14 -29 14 -12 18 -25 14 -41
-4 -18 3 -32 28 -57 37 -36 119 -86 142 -86 8 0 15 -8 15 -17 0 -32 72 -101
112 -108 36 -7 43 -5 122 38 34 18 52 10 67 -30 7 -19 12 -21 32 -14 20 8 26
5 42 -25 10 -19 24 -34 31 -34 6 0 25 -15 41 -33 23 -26 37 -33 63 -33 28 1
36 5 38 24 4 25 10 27 36 7 10 -7 15 -19 11 -24 -3 -6 -3 -21 0 -32 5 -15 13
-19 28 -15 25 6 67 -24 67 -48 0 -8 -13 -22 -29 -30 -16 -9 -31 -25 -34 -37
-6 -24 4 -51 19 -50 5 1 9 -5 9 -11 0 -21 32 -28 119 -29 51 0 113 7 164 20
94 23 138 17 127 -19 -7 -23 -6 -23 53 -10 56 13 82 39 70 71 -6 15 -5 25 2
27 5 2 8 7 5 12 -5 9 86 32 94 24 3 -3 -5 -7 -16 -10 -24 -6 -56 -48 -46 -58
13 -13 73 -6 73 8 0 19 31 29 63 21 30 -8 70 3 62 16 -4 5 -1 9 4 9 6 0 11 -4
11 -8 0 -4 20 -15 43 -24 42 -15 46 -15 75 4 18 11 29 25 26 33 -3 7 3 16 13
19 10 3 32 19 50 36 18 16 38 30 45 30 7 0 32 10 56 22 42 23 62 58 62 114 0
36 58 82 121 98 18 4 33 19 48 48 29 60 79 149 91 163 8 10 27 121 44 265 9
71 12 81 24 89 15 9 59 97 67 132 3 14 20 40 38 56 44 43 60 63 75 96 15 37
15 44 0 29 -19 -19 -28 -14 -28 17 0 33 20 57 59 73 16 6 21 12 13 15 -7 3
-19 -1 -27 -7 -12 -10 -15 -9 -15 4 0 13 -4 15 -19 6 -20 -10 -61 -14 -61 -5
0 11 35 45 47 45 7 0 13 7 13 15 0 9 -9 15 -25 15 -18 0 -23 -4 -19 -15 4 -8
1 -15 -5 -15 -6 0 -11 5 -11 10 0 6 -8 10 -19 10 -10 0 -24 7 -31 15 -9 11
-22 14 -42 10 -24 -6 -28 -3 -28 14 0 12 6 21 14 21 12 0 13 6 4 30 -7 22 -7
34 1 44 9 11 8 18 -4 30 -20 20 -34 20 -41 1 -11 -28 -42 -17 -56 21 -9 25
-17 34 -30 31 -9 -3 -19 1 -22 9 -6 15 -42 19 -50 6 -6 -10 -138 -7 -178 3
-20 5 -29 2 -37 -12 -9 -16 -12 -16 -22 -3 -6 9 -12 11 -15 4 -3 -6 -25 -8
-62 -3 -31 4 -76 4 -99 2 -24 -3 -48 -1 -55 4 -7 5 -40 10 -73 11 -45 2 -64 8
-77 22 -10 13 -29 20 -50 20 -19 0 -39 5 -45 11 -6 6 -31 10 -56 8 -27 -3 -49
1 -56 9 -7 6 -23 12 -37 12 -14 0 -32 7 -40 15 -9 8 -29 15 -45 15 -16 0 -29
5 -29 11 0 5 -5 7 -10 4 -6 -4 -17 -1 -25 5 -9 7 -36 12 -63 11 -55 -2 -162
19 -162 32 0 4 -5 5 -10 2 -6 -4 -18 -1 -26 6 -8 6 -37 13 -65 14 -28 2 -53 6
-56 9 -4 3 -14 6 -24 6 -9 0 -19 8 -21 18 -4 15 -13 17 -42 14 -20 -2 -42 0
-49 6 -9 8 -19 5 -37 -8z m-265 -389 c-3 -6 -11 -11 -17 -11 -6 0 -6 6 2 15
14 17 26 13 15 -4z m-115 -85 c0 -3 -4 -8 -10 -11 -5 -3 -10 -1 -10 4 0 6 5
11 10 11 6 0 10 -2 10 -4z m930 -526 c0 -5 -24 -10 -52 -10 -38 0 -49 3 -38
10 20 13 90 13 90 0z m-270 -445 c0 -9 -6 -12 -15 -9 -8 4 -15 10 -15 15 0 5
7 9 15 9 8 0 15 -7 15 -15z m1065 -135 c7 -22 -21 -70 -40 -70 -7 0 -18 7 -25
15 -7 8 -19 15 -27 15 -8 0 -21 -7 -29 -15 -21 -20 -51 -21 -34 0 18 21 2 38
-31 31 -30 -6 -39 6 -16 21 15 10 167 30 184 25 7 -2 15 -12 18 -22z m-1117
-2 c2 -12 -3 -18 -16 -18 -22 0 -46 23 -35 34 13 13 48 1 51 -16z m848 7 c-4
-10 1 -14 17 -12 29 3 29 -23 0 -34 -19 -7 -23 -5 -23 11 0 10 -10 26 -22 34
l-22 16 28 0 c21 0 27 -4 22 -15z m-92 -11 c27 -10 19 -34 -12 -34 -15 0 -33
-5 -40 -12 -6 -6 -30 -14 -54 -19 -24 -4 -68 -14 -98 -23 -55 -16 -78 -10 -67
16 7 20 187 65 197 49 5 -9 9 -6 13 8 5 21 30 27 61 15z m-586 -28 c16 -16 16
-18 -8 -36 -30 -23 -69 -25 -96 -5 -10 8 -27 15 -36 15 -23 0 -23 8 -1 33 15
16 28 18 71 15 32 -3 60 -12 70 -22z m137 -17 c6 -4 27 -12 48 -19 52 -16 42
-33 -27 -44 -47 -8 -60 -7 -73 6 -14 15 -14 18 3 41 19 24 29 27 49 16z m495
-9 c0 -12 -40 -33 -48 -25 -4 4 2 13 12 21 23 16 36 18 36 4z m-70 -19 c0 -13
-22 -28 -55 -35 -33 -8 -30 -2 12 25 32 20 43 23 43 10z m195 -11 c-3 -5 -12
-10 -18 -10 -7 0 -6 4 3 10 19 12 23 12 15 0z m-288 -36 c-3 -3 -12 -4 -19 -1
-8 3 -5 6 6 6 11 1 17 -2 13 -5z m-517 -24 c0 -5 3 -9 8 -9 24 4 52 -2 47 -11
-10 -16 -41 -11 -60 10 -10 11 -13 20 -7 20 7 0 12 -4 12 -10z m450 0 c-8 -5
-27 -10 -42 -10 -15 0 -30 -4 -33 -10 -3 -5 -18 -10 -33 -9 -25 1 -24 2 13 20
42 19 124 27 95 9z m260 6 c0 -3 -4 -8 -10 -11 -5 -3 -10 -1 -10 4 0 6 5 11
10 11 6 0 10 -2 10 -4z m-462 -22 c14 -4 17 -44 3 -44 -5 0 -12 -10 -14 -22
l-4 -23 -8 23 c-6 19 -12 22 -40 16 -19 -3 -35 -1 -39 5 -4 6 -2 11 3 11 6 0
11 5 11 10 0 6 -9 10 -20 10 -27 0 -25 18 3 22 22 4 81 0 105 -8z m579 -4
c-27 -22 -37 -25 -37 -12 0 5 10 14 23 20 35 17 42 14 14 -8z m-802 -45 c0
-10 -6 -20 -12 -22 -8 -3 -13 5 -13 22 0 17 5 25 13 23 6 -3 12 -13 12 -23z"/>
<path d="M7077 10614 c-8 -8 1 -24 14 -24 5 0 9 7 9 15 0 15 -12 20 -23 9z"/>
<path d="M10066 9941 c-4 -7 -5 -15 -2 -18 9 -9 19 4 14 18 -4 11 -6 11 -12 0z"/>
<path d="M4104 9655 c-8 -21 6 -41 17 -24 12 19 11 39 -1 39 -6 0 -13 -7 -16
-15z"/>
<path d="M4100 9554 c0 -14 4 -23 10 -19 6 3 10 15 10 26 0 10 -4 19 -10 19
-5 0 -10 -12 -10 -26z"/>
<path d="M4088 9423 c-12 -15 -14 -31 -7 -83 17 -136 38 -262 44 -268 4 -4 4
18 0 48 -4 30 -8 112 -9 182 -1 70 -4 130 -7 133 -3 3 -13 -3 -21 -12z"/>
<path d="M8720 8970 c0 -5 5 -10 10 -10 6 0 10 5 10 10 0 6 -4 10 -10 10 -5 0
-10 -4 -10 -10z"/>
<path d="M8069 8914 c-8 -9 -14 -31 -15 -48 -1 -19 -12 -38 -28 -53 -14 -12
-26 -28 -26 -35 -1 -9 -5 -7 -14 5 -7 9 -25 17 -40 17 -23 0 -26 -4 -26 -35 0
-32 -15 -75 -46 -137 -11 -20 -12 -32 -3 -51 8 -18 8 -30 0 -46 -10 -19 -9
-22 16 -32 36 -14 59 0 56 35 -2 34 8 33 49 -4 18 -16 38 -30 45 -30 7 0 16
-12 19 -27 4 -16 17 -38 30 -51 13 -13 24 -35 25 -50 1 -15 2 -44 3 -65 2 -21
-3 -42 -10 -48 -7 -6 -10 -17 -7 -25 3 -8 0 -14 -6 -14 -6 0 -11 -7 -11 -15 0
-11 -13 -15 -54 -15 -54 0 -85 17 -71 40 10 16 -55 69 -99 81 -38 10 -54 9
-119 -7 -28 -6 -97 -66 -97 -83 0 -14 -45 -19 -114 -14 -50 4 -65 2 -80 -12
-18 -18 -117 -40 -196 -44 -24 -1 -47 -6 -50 -11 -17 -28 -215 -17 -246 14 -9
10 -29 20 -45 23 -16 3 -29 12 -29 19 0 8 -6 14 -14 14 -7 0 -19 7 -26 15 -23
28 -54 17 -109 -40 -52 -54 -53 -54 -99 -48 -26 3 -53 10 -59 16 -9 6 -13 6
-13 -2 0 -7 -22 -21 -50 -33 -27 -11 -50 -25 -50 -29 0 -5 -5 -9 -11 -9 -6 0
-30 -14 -53 -30 -32 -24 -45 -41 -54 -76 -11 -40 -10 -51 7 -89 11 -24 38 -64
61 -89 32 -35 47 -63 61 -112 24 -87 41 -111 86 -123 56 -16 65 -14 164 24
109 42 163 45 235 11 67 -31 134 -100 134 -138 0 -16 7 -31 15 -34 8 -4 15
-14 15 -25 0 -10 5 -30 12 -44 9 -19 9 -28 0 -37 -15 -15 -16 -118 -1 -118 5
0 7 -5 4 -10 -4 -6 -11 -8 -16 -5 -5 4 -9 -3 -9 -14 0 -17 6 -21 31 -21 26 0
31 3 26 20 -4 16 -1 19 16 15 17 -5 26 2 41 30 20 37 30 43 42 24 4 -8 9 -7
15 2 7 11 9 10 9 -4 0 -15 5 -17 28 -12 16 3 42 1 58 -6 16 -6 45 -12 64 -14
121 -10 236 -54 362 -137 15 -10 35 -18 46 -18 10 0 37 -14 60 -31 23 -17 46
-28 52 -24 11 7 33 -42 25 -55 -6 -9 -69 30 -89 54 -6 7 -22 16 -36 19 -14 3
-45 11 -70 17 -53 14 -184 14 -188 0 -2 -6 -11 -10 -20 -10 -10 0 -23 -9 -29
-19 -7 -11 -29 -22 -52 -26 -23 -4 -41 -11 -41 -16 0 -5 -12 -12 -27 -15 -16
-4 -46 -15 -68 -25 -24 -12 -64 -19 -102 -19 -69 0 -180 25 -204 46 -8 8 -24
14 -33 14 -10 0 -30 6 -44 14 -105 54 -99 53 -142 28 -21 -12 -50 -22 -63 -22
-14 0 -30 -7 -37 -15 -7 -9 -15 -13 -18 -11 -5 6 -140 -64 -182 -94 -14 -10
-45 -23 -70 -30 -25 -7 -56 -20 -70 -30 -83 -58 -164 -77 -198 -47 -20 18 -42
23 -42 8 0 -5 -17 -12 -37 -16 -20 -4 -44 -15 -53 -26 -12 -13 -34 -19 -78
-22 -38 -2 -68 -10 -79 -19 -11 -10 -34 -16 -57 -15 -42 1 -66 -20 -66 -57 0
-12 -5 -28 -10 -36 -9 -13 -11 -13 -19 0 -8 11 -12 9 -20 -13 -7 -17 -18 -27
-30 -27 -29 0 -62 -48 -59 -84 3 -26 -1 -32 -21 -34 -22 -4 -71 -46 -71 -62 0
-4 -27 -11 -61 -14 -46 -6 -59 -11 -55 -21 3 -9 -9 -22 -30 -36 -30 -18 -46
-21 -98 -17 -34 3 -71 10 -82 16 -10 5 -32 14 -49 19 -19 5 -31 16 -33 30 -3
21 -32 42 -32 23 0 -6 -5 -10 -11 -10 -7 0 -9 9 -6 21 4 15 -1 23 -21 31 -59
23 -72 32 -70 47 2 12 -6 16 -31 17 -22 0 -36 6 -43 20 -6 10 -11 20 -12 20
-1 1 -11 5 -23 8 -17 6 -23 3 -23 -8 0 -9 -6 -16 -12 -16 -9 0 -8 -4 2 -10 13
-9 13 -11 0 -20 -22 -14 -35 -7 -35 20 0 14 -9 26 -22 31 -12 4 -26 16 -32 26
-9 16 -18 10 -87 -57 -43 -41 -83 -79 -89 -85 -53 -45 -108 -100 -146 -145
-111 -135 -292 -294 -356 -314 -13 -4 -23 -12 -23 -17 0 -5 -5 -9 -11 -9 -21
0 -264 -126 -317 -165 -92 -65 -77 -59 -577 -235 -44 -15 -105 -38 -135 -50
-30 -12 -89 -35 -130 -50 -41 -15 -136 -51 -210 -79 -74 -28 -205 -74 -290
-102 -85 -28 -171 -57 -190 -64 -19 -8 -51 -18 -70 -24 -19 -5 -69 -20 -110
-31 -41 -12 -138 -41 -215 -65 -127 -39 -211 -64 -435 -126 -173 -48 -358
-102 -405 -118 -16 -6 -64 -22 -106 -35 -103 -34 -351 -137 -463 -192 l-91
-46 -35 17 c-60 30 -149 31 -224 4 l-66 -23 0 -2258 0 -2258 3675 0 3675 0 22
22 21 21 18 -21 c15 -19 27 -22 93 -22 65 0 78 3 88 20 7 11 18 20 25 20 20 0
15 -28 -4 -33 -10 -3 1574 -5 3520 -6 l3537 -1 0 2280 0 2280 -27 -6 c-16 -4
-42 -13 -60 -21 -43 -18 -65 -16 -89 5 -39 35 -91 70 -157 106 -75 40 -99 50
-262 106 -60 21 -150 52 -200 70 -114 41 -264 86 -534 161 -118 32 -316 93
-440 133 -124 41 -253 84 -286 94 -33 11 -163 56 -290 99 -216 75 -317 104
-595 168 -136 32 -236 62 -385 117 -99 36 -137 51 -200 78 -64 27 -204 62
-469 115 -99 20 -187 41 -195 48 -9 7 -66 57 -126 112 -61 55 -146 132 -190
171 -293 260 -316 281 -402 380 -51 59 -51 60 -37 93 18 43 18 57 -1 41 -13
-11 -15 -9 -13 17 1 21 6 29 15 26 15 -6 18 23 3 32 -10 6 -12 105 -3 105 3 0
13 -5 24 -10 16 -9 19 -7 19 10 0 12 -4 19 -9 15 -6 -3 -6 8 -1 27 13 52 18
128 9 128 -5 0 -9 -6 -9 -12 0 -7 -9 2 -20 20 -25 41 -25 52 0 52 15 0 20 7
20 25 0 18 4 23 16 18 23 -9 48 25 33 44 -15 17 -49 17 -49 -1 0 -9 -15 -15
-45 -18 -25 -2 -45 0 -45 4 0 5 13 8 28 8 l29 0 0 120 0 120 -34 0 c-32 0 -33
-1 -33 -40 0 -38 -2 -40 -30 -40 l-30 0 0 70 c0 39 -4 70 -8 70 -5 0 -14 11
-20 24 -12 28 -49 43 -65 27 -21 -21 -38 -88 -37 -149 1 -58 -1 -63 -25 -72
-14 -5 -25 -17 -25 -26 0 -9 -13 -30 -30 -45 -23 -22 -39 -29 -70 -29 -29 0
-40 -4 -40 -15 0 -8 -4 -15 -9 -15 -5 0 -16 -18 -25 -40 -9 -24 -22 -40 -32
-40 -14 0 -16 -8 -11 -42 3 -24 3 -35 0 -25 -5 21 -17 22 -32 3 -8 -9 -8 -15
-2 -18 7 -2 5 -17 -4 -43 -13 -37 -16 -40 -50 -39 -20 1 -41 8 -48 16 -7 9
-26 23 -44 33 -26 15 -34 16 -47 6 -9 -8 -16 -20 -16 -27 0 -10 -13 -14 -42
-14 -31 0 -39 -3 -28 -10 12 -8 12 -10 -2 -15 -19 -7 -136 0 -145 9 -4 3 -18
6 -32 6 -15 0 -38 11 -53 25 -27 25 -98 36 -98 16 0 -5 -14 -12 -31 -16 -67
-15 -83 -13 -106 12 -22 22 -25 23 -45 9 -12 -9 -30 -16 -40 -16 -24 0 -25 58
0 76 16 13 16 15 0 28 -10 7 -18 18 -18 24 0 5 -9 8 -20 5 -16 -4 -18 -9 -9
-24 10 -20 -3 -59 -21 -59 -15 0 -23 46 -11 68 6 11 8 22 4 25 -3 4 0 20 7 37
11 27 21 35 43 31 4 0 7 3 7 9 0 5 7 10 16 10 10 0 14 6 11 14 -8 21 16 82 45
111 29 29 68 105 68 133 0 10 5 23 11 29 8 8 9 35 5 80 -3 37 -7 77 -7 88 0
11 -11 45 -24 75 -12 30 -28 73 -35 94 -7 22 -26 58 -41 79 -16 22 -29 46 -29
54 0 7 -4 22 -10 33 -5 11 -14 28 -19 38 -14 29 -53 173 -48 178 3 3 1 19 -3
37 -24 94 -49 184 -53 197 -3 8 -8 53 -11 99 -3 55 -10 89 -20 100 -24 26 -19
41 15 48 17 3 27 9 22 12 -5 3 -13 15 -17 26 -7 20 -8 20 -26 -2 -21 -26 -27
-27 -62 -11 -17 8 -28 23 -30 40 -6 40 4 51 41 43 57 -12 92 15 56 45 -8 7
-15 28 -15 47 0 26 -5 36 -20 40 -22 6 -26 18 -8 29 7 5 5 11 -7 21 -25 17
-40 17 -56 -3z m51 -289 c0 -8 -4 -15 -10 -15 -5 0 -10 7 -10 15 0 8 5 15 10
15 6 0 10 -7 10 -15z m1560 -1435 c0 -5 -18 -10 -40 -10 -22 0 -40 5 -40 10 0
6 18 10 40 10 22 0 40 -4 40 -10z m-1610 -268 c0 -14 -11 -21 -26 -15 -21 8
-17 23 6 23 11 0 20 -4 20 -8z m890 -58 c0 -14 -3 -14 -15 -4 -8 7 -15 14 -15
16 0 2 7 4 15 4 8 0 15 -7 15 -16z m750 -258 c0 -3 -4 -8 -10 -11 -5 -3 -10
-1 -10 4 0 6 5 11 10 11 6 0 10 -2 10 -4z m-3120 -54 c0 -5 48 -9 108 -9 66 1
132 -5 172 -16 36 -8 108 -18 160 -22 127 -8 171 -15 198 -32 20 -12 25 -12
38 2 15 15 59 22 51 8 -3 -5 45 -7 106 -6 66 1 121 -3 135 -9 17 -9 25 -9 34
0 17 17 41 15 65 -7 12 -11 23 -17 27 -14 3 3 13 2 22 -1 16 -6 15 -9 -7 -30
-20 -19 -27 -21 -39 -11 -8 7 -26 16 -38 20 -22 6 -23 5 -12 -15 13 -24 6 -55
-10 -45 -6 3 -13 -1 -16 -9 -4 -10 -18 -16 -35 -16 -16 0 -29 -4 -29 -10 0 -5
-6 -10 -14 -10 -8 0 -17 -7 -20 -17 -6 -14 -9 -14 -27 5 -25 28 -25 28 -53 -5
-22 -25 -25 -26 -55 -13 -24 10 -38 10 -57 1 -28 -12 -37 -2 -33 40 1 13 1 42
-1 64 -3 43 -4 40 -24 -42 -8 -32 -26 -46 -26 -20 0 9 -2 9 -8 -1 -6 -9 -12
-5 -21 14 -9 20 -15 24 -23 16 -7 -7 -20 -12 -30 -12 -11 0 -23 -11 -28 -25
-10 -26 -24 -32 -35 -15 -9 14 -42 13 -47 -2 -3 -7 -31 -14 -69 -16 -53 -3
-73 0 -104 17 -22 12 -48 21 -57 21 -14 0 -18 8 -18 36 0 31 -2 35 -15 24 -8
-7 -15 -21 -15 -31 0 -10 -3 -20 -7 -22 -14 -8 -53 12 -53 27 0 21 -62 55 -81
43 -20 -12 -89 17 -89 37 0 9 -4 16 -10 16 -5 0 -7 -13 -3 -30 4 -23 2 -30
-10 -30 -9 0 -17 -10 -19 -22 -2 -13 -11 -24 -21 -26 -15 -3 -17 3 -15 33 1
26 -3 41 -15 50 -9 7 -17 18 -17 26 -1 8 -8 2 -16 -13 -8 -16 -23 -28 -34 -28
-11 0 -20 -5 -20 -11 0 -6 11 -8 29 -4 l29 6 7 -90 c6 -75 4 -96 -11 -130 -16
-36 -21 -40 -63 -46 -25 -3 -64 -5 -86 -4 -23 2 -47 -1 -54 -6 -8 -4 -32 -9
-55 -10 -22 -2 -41 -7 -43 -11 -2 -5 -35 -7 -74 -6 -58 3 -81 9 -118 32 -40
25 -79 67 -69 74 2 1 19 10 38 19 19 9 45 26 58 36 20 17 21 23 10 40 -11 18
-10 23 7 36 11 8 30 17 41 21 12 3 27 16 34 30 8 13 32 35 56 49 23 13 44 32
48 41 5 14 17 15 84 9 42 -4 85 -12 96 -17 12 -7 22 -6 30 2 8 8 6 10 -9 5
-11 -4 -5 2 13 14 27 18 36 19 52 9 11 -7 20 -16 20 -21 0 -4 5 -5 10 -2 6 3
10 15 10 26 0 25 25 35 45 19 12 -10 15 -10 15 0 0 8 9 11 24 8 13 -3 35 1 47
8 28 16 39 17 39 6z m-1650 -163 c0 -4 -6 -9 -13 -12 -12 -4 -14 10 -8 43 2 6
21 -23 21 -31z m-66 5 c-11 -5 14 -66 36 -88 5 -5 10 -18 10 -27 0 -10 6 -24
13 -31 7 -7 24 -35 37 -63 13 -27 53 -97 88 -155 36 -58 70 -114 76 -125 15
-27 100 -147 152 -215 24 -30 56 -82 72 -115 60 -121 204 -322 314 -439 129
-138 213 -222 242 -241 16 -11 41 -31 56 -45 15 -14 44 -38 64 -53 20 -15 36
-36 36 -45 0 -16 -64 -109 -153 -220 -23 -30 -57 -77 -74 -105 -18 -29 -49
-67 -68 -85 -20 -18 -52 -54 -72 -80 -46 -60 -273 -302 -284 -302 -15 0 -79
62 -79 76 0 7 -6 28 -14 46 -8 18 -19 53 -26 78 -7 25 -16 53 -21 62 -5 10 -9
34 -9 53 0 19 -4 43 -9 53 -5 9 -18 62 -29 117 -33 162 -96 399 -150 565 -43
133 -77 274 -113 470 -4 25 -24 99 -44 165 -20 66 -43 164 -50 219 -7 54 -17
101 -22 105 -13 10 -21 400 -8 421 4 6 14 10 23 9 9 0 12 -3 6 -5z m1533 -26
c-3 -8 -6 -5 -6 6 -1 11 2 17 5 13 3 -3 4 -12 1 -19z m73 -172 c0 -6 -12 -17
-27 -23 -29 -14 -66 -18 -47 -5 6 4 16 17 22 29 12 22 52 22 52 -1z m3030
-136 c-22 -68 -51 -146 -64 -174 -69 -148 -86 -186 -86 -195 0 -5 -3 -11 -7
-13 -5 -1 -23 -32 -41 -68 -58 -113 -144 -250 -153 -244 -5 3 -9 -7 -9 -22 0
-43 -97 -232 -118 -230 -12 1 -18 -8 -20 -26 -2 -16 -9 -28 -18 -28 -17 0 -19
-17 -2 -22 8 -3 -3 -19 -27 -42 -34 -32 -45 -37 -76 -33 -32 4 -36 2 -32 -14
3 -11 -3 -29 -13 -40 -10 -11 -18 -36 -18 -57 -1 -29 -5 -36 -18 -34 -10 2
-18 -3 -18 -10 0 -7 -14 -26 -32 -41 -22 -19 -26 -25 -10 -17 12 6 22 9 23 8
7 -25 3 -48 -7 -44 -7 3 -16 1 -19 -4 -3 -5 -12 -7 -20 -3 -9 3 -22 0 -30 -7
-14 -11 -14 -15 1 -31 14 -15 14 -21 2 -46 -10 -22 -24 -30 -64 -39 -28 -6
-56 -14 -62 -18 -6 -3 -12 -1 -14 6 -3 7 5 17 16 23 29 15 33 45 7 45 -12 0
-21 4 -21 10 0 5 6 7 13 5 6 -3 18 -1 26 4 12 8 12 14 -3 44 -9 20 -21 37 -26
39 -6 2 6 12 25 23 28 14 38 16 44 7 5 -9 15 -5 36 14 25 23 26 26 7 20 -16
-5 -24 -3 -28 8 -3 9 -12 16 -20 16 -20 0 -17 11 11 44 29 34 30 36 10 62 -8
10 -15 27 -15 38 0 14 5 17 24 12 30 -7 35 0 41 55 3 37 15 69 15 42 0 -16 36
-4 56 18 21 23 43 24 58 3 11 -14 13 -14 25 0 11 14 11 16 -3 16 -9 0 -16 8
-16 19 0 30 11 51 27 51 8 0 12 4 9 9 -3 5 4 11 15 14 16 4 19 11 14 26 -5 18
-1 22 25 28 21 4 27 8 19 14 -10 6 -10 11 0 23 7 9 11 25 8 36 -4 15 0 20 13
20 11 0 31 15 45 34 14 19 36 37 48 40 22 5 55 68 48 91 -1 5 1 7 5 2 9 -9 64
72 64 94 0 9 12 27 26 40 25 24 61 73 98 133 10 17 31 43 47 59 16 15 29 35
29 45 0 9 14 37 30 61 17 24 30 57 30 73 0 15 4 28 8 28 5 0 21 26 36 58 16
31 35 68 44 82 32 49 25 -11 -18 -140z m-2955 79 c8 -25 1 -34 -20 -26 -19 8
-20 47 -1 47 8 0 18 -9 21 -21z m-110 -500 c4 -6 37 -10 79 -9 39 1 103 -6
141 -14 39 -9 97 -21 130 -26 82 -12 165 -29 176 -35 26 -17 151 -56 194 -61
27 -4 55 -10 60 -15 21 -16 100 -38 120 -33 11 3 47 -2 80 -11 32 -8 82 -15
110 -15 28 0 75 -7 105 -15 30 -8 76 -20 102 -26 25 -5 54 -19 64 -30 9 -10
24 -19 31 -19 21 0 11 -23 -15 -35 -12 -5 -25 -18 -28 -28 -6 -18 -62 -52 -71
-43 -6 6 -109 -32 -148 -56 -16 -10 -42 -23 -57 -29 -17 -7 -25 -16 -21 -25 3
-9 -2 -14 -16 -14 -13 0 -26 -10 -33 -25 -9 -20 -19 -25 -52 -26 -39 -1 -40
-2 -11 -9 17 -4 22 -8 12 -9 -10 0 -20 -7 -23 -14 -3 -9 -27 -13 -75 -14 -62
-1 -72 1 -76 18 -4 16 -15 19 -59 19 -39 0 -54 -4 -54 -14 0 -28 -27 -39 -62
-26 -18 7 -38 19 -43 25 -6 7 -36 18 -68 25 -32 8 -53 16 -47 20 15 9 -12 20
-46 20 -17 0 -23 -4 -18 -12 5 -8 -3 -9 -32 -3 -21 4 -60 7 -86 6 -38 -1 -48
2 -53 18 -6 18 -7 18 -55 0 -29 -11 -51 -15 -55 -9 -3 5 -19 7 -35 3 -19 -3
-38 0 -54 10 -15 10 -45 16 -82 15 -108 -1 -119 1 -106 14 19 19 15 48 -7 48
-11 0 -28 12 -39 27 l-19 26 -23 -40 c-20 -36 -28 -41 -68 -47 -49 -7 -68 3
-59 28 7 18 27 22 27 6 0 -5 14 -10 30 -10 46 0 35 52 -12 55 -13 1 -27 11
-33 23 -5 12 -17 23 -25 23 -11 1 -11 2 2 6 9 2 20 13 23 23 6 19 -13 60 -27
60 -5 0 -8 7 -8 15 0 23 -20 18 -29 -7 -8 -20 -10 -21 -16 -6 -9 23 12 59 30
52 12 -5 14 4 12 47 -2 50 -1 53 23 54 65 3 70 5 70 26 0 13 10 23 30 30 17 6
30 15 30 20 0 5 14 9 30 9 17 0 30 4 30 10 0 5 18 13 40 16 22 4 40 10 40 15
0 4 19 12 43 17 41 9 69 2 82 -19z m-485 -184 c0 -8 5 -15 10 -15 16 0 12 -20
-6 -27 -20 -7 -33 12 -27 38 6 23 23 25 23 4z m2940 -509 c0 -3 -4 -8 -10 -11
-5 -3 -10 -1 -10 4 0 6 5 11 10 11 6 0 10 -2 10 -4z m-173 -288 c-3 -8 -6 -5
-6 6 -1 11 2 17 5 13 3 -3 4 -12 1 -19z m-337 -88 c0 -5 9 -10 21 -10 27 0 19
-24 -9 -28 -15 -2 -22 2 -22 12 0 9 -4 16 -10 16 -5 0 -10 5 -10 10 0 6 7 10
15 10 8 0 15 -4 15 -10z m-910 -68 c0 -13 -12 -22 -22 -16 -10 6 -1 24 13 24
5 0 9 -4 9 -8z m1023 -9 c3 -5 1 -18 -4 -31 -8 -21 -10 -21 -28 -6 -15 13 -17
20 -8 30 13 15 33 18 40 7z m-26 -85 c-3 -8 -6 -5 -6 6 -1 11 2 17 5 13 3 -3
4 -12 1 -19z m48 1 c4 -6 5 -12 2 -15 -7 -7 -37 7 -37 17 0 13 27 11 35 -2z
m-115 -54 c14 -16 10 -18 -14 -9 -9 3 -16 10 -16 15 0 14 16 11 30 -6z m-1924
-152 c-8 -9 -46 18 -40 28 4 6 13 4 25 -7 11 -9 17 -19 15 -21z m-561 -144
c44 -10 149 -24 233 -30 l153 -13 22 -30 c12 -17 40 -49 63 -71 39 -38 204
-275 236 -340 26 -52 52 -207 49 -300 0 -11 9 -29 19 -40 19 -21 19 -22 -24
-150 -73 -216 -61 -186 -126 -330 -40 -87 -91 -188 -99 -195 -16 -13 -174
-328 -186 -370 -4 -14 -16 -41 -27 -60 -39 -67 -96 -250 -97 -311 -1 -19 -5
-39 -10 -45 -11 -11 -39 -142 -45 -209 -3 -27 -10 -74 -16 -103 -7 -29 -10
-77 -8 -107 2 -33 -1 -56 -8 -59 -11 -4 -39 -232 -59 -471 -9 -112 -25 -214
-35 -220 -5 -3 -12 11 -15 32 -6 34 -23 122 -32 163 -2 8 -5 31 -8 50 -2 19
-9 71 -14 115 -6 44 -11 100 -12 125 -1 25 -5 63 -10 85 -4 22 -10 75 -14 118
-3 43 -8 86 -9 95 -2 9 -7 53 -11 97 -4 44 -16 132 -27 195 -37 215 -41 240
-63 430 -20 173 -34 314 -46 471 -15 180 -14 177 -33 314 -18 129 -23 163 -32
210 -3 17 -10 56 -15 88 -5 33 -11 63 -14 67 -3 5 -10 39 -15 77 -5 37 -16 97
-25 133 -14 58 -45 240 -45 262 0 4 9 8 19 8 14 0 23 13 34 44 8 24 34 74 56
112 26 43 41 80 41 101 0 39 23 63 78 79 41 13 60 11 177 -17z m744 2 l25 -19
-26 -30 c-24 -29 -25 -29 -48 -12 -23 17 -23 17 -4 49 21 36 22 36 53 12z
m213 -168 c36 -35 35 -46 -5 -68 -32 -17 -35 -17 -60 0 -15 9 -27 22 -27 28 0
11 49 67 59 67 3 0 18 -12 33 -27z m408 -31 c0 -4 -9 -8 -21 -9 -17 -2 -18 1
-9 12 12 14 30 12 30 -3z m-430 -160 c0 -5 11 -15 25 -22 27 -14 33 -30 13
-29 -16 0 -64 59 -49 59 6 0 11 -4 11 -8z m239 -23 l23 -30 -23 -25 c-29 -31
-49 -30 -83 5 l-27 28 33 27 c41 32 47 32 77 -5z m-206 -197 c23 -21 22 -24
-21 -48 l-37 -22 -17 24 c-22 28 -22 29 -1 54 19 22 45 19 76 -8z m153 -19 c3
-10 10 -26 15 -35 14 -28 -13 -22 -41 8 -21 21 -22 27 -10 34 22 14 30 12 36
-7z m210 -30 c-10 -10 -19 5 -10 18 6 11 8 11 12 0 2 -7 1 -15 -2 -18z m-396
-134 c0 -4 -7 -6 -15 -3 -8 4 -15 10 -15 15 0 4 7 6 15 3 8 -4 15 -10 15 -15z
m244 -4 c25 -20 28 -26 17 -39 -8 -9 -22 -16 -32 -16 -27 0 -89 32 -89 45 0
10 43 30 70 34 3 0 18 -10 34 -24z m47 -176 c21 -30 21 -33 6 -58 -20 -33 -25
-32 -66 2 l-34 28 29 29 c16 16 32 30 36 30 4 0 17 -14 29 -31z m-202 -13 c10
-12 7 -23 -14 -55 -28 -41 -49 -45 -60 -10 -7 22 29 79 49 79 8 0 19 -6 25
-14z m-199 -86 c-16 -23 -25 -28 -30 -19 -11 16 -1 39 15 39 9 0 11 8 8 23 -5
21 -5 21 12 5 17 -16 17 -18 -5 -48z m1250 29 c4 -6 13 -8 19 -5 6 4 14 0 17
-8 3 -9 10 -16 16 -16 5 0 7 4 4 9 -3 5 3 11 14 14 11 3 19 2 18 -2 -3 -26 5
-32 40 -30 20 1 48 -4 62 -11 15 -9 54 -15 97 -15 39 0 74 -3 78 -6 11 -12 16
-107 5 -114 -6 -3 -8 -10 -5 -15 3 -5 1 -27 -4 -47 -6 -21 -12 -49 -15 -63 -2
-14 -19 -88 -36 -165 -33 -150 -34 -154 -49 -230 -5 -27 -14 -66 -20 -85 -25
-89 -72 -288 -73 -312 0 -16 -5 -28 -10 -28 -5 0 -8 -8 -7 -17 3 -16 -11 -78
-66 -309 -8 -33 -15 -68 -15 -77 0 -22 -21 -67 -32 -67 -4 0 -8 15 -9 33 0 30
-18 102 -67 267 -10 36 -23 76 -29 90 -5 14 -20 57 -33 95 -13 39 -30 86 -39
105 -8 19 -16 37 -16 40 -4 16 -18 49 -31 73 -7 16 -14 34 -14 41 0 7 -5 17
-12 24 -6 6 -13 18 -14 26 -2 15 -66 155 -92 201 -21 37 -30 221 -13 263 6 15
12 54 12 87 1 83 19 185 37 216 16 28 60 46 122 52 65 6 153 -1 160 -14z
m-1048 -162 l26 -34 -25 -31 c-13 -18 -32 -32 -41 -32 -18 0 -62 38 -62 55 0
16 51 75 64 75 6 0 23 -15 38 -33z m-39 -227 c-3 -10 -11 -24 -18 -30 -8 -6
-11 -18 -8 -27 8 -21 -17 -13 -31 10 -8 13 -4 22 19 46 32 32 46 32 38 1z
m250 7 c13 -20 13 -26 1 -50 -8 -15 -17 -27 -20 -27 -12 0 -64 45 -64 56 0 14
28 27 41 19 5 -4 6 1 3 9 -10 25 22 19 39 -7z m-424 -31 c24 -26 23 -35 -12
-73 -27 -30 -39 -29 -59 4 -15 26 -15 28 11 60 14 18 29 33 32 33 3 0 16 -11
28 -24z m205 -196 c26 -31 26 -54 0 -64 -8 -3 -14 -12 -14 -21 0 -24 -26 -18
-65 16 l-36 32 32 33 c18 19 38 34 45 34 7 0 24 -14 38 -30z m-220 -73 c-40
-48 -52 -52 -66 -22 -8 18 -9 29 -1 33 5 4 15 17 22 30 11 21 13 21 42 7 l30
-16 -27 -32z m-185 -1 c9 -11 6 -21 -18 -46 l-29 -32 -12 22 c-10 19 -10 24 4
32 9 5 16 16 16 23 0 19 24 19 39 1z m621 -142 c0 -8 -5 -14 -10 -14 -6 0 -8
-10 -4 -24 6 -26 -11 -45 -20 -21 -3 8 -15 15 -26 15 -28 0 -25 14 11 44 31
26 49 27 49 0z m-431 -30 c12 -15 21 -30 21 -33 0 -10 -61 -71 -71 -71 -5 0
-23 13 -41 29 l-32 29 29 35 c36 43 66 46 94 11z m165 18 c-6 -4 -13 -15 -17
-24 -6 -16 -27 -26 -27 -13 0 10 35 45 45 45 6 0 6 -3 -1 -8z m-364 -79 c0
-15 -48 -68 -55 -61 -4 4 3 20 16 37 23 29 39 39 39 24z m-188 -35 c3 -7 0
-18 -6 -26 -28 -34 -39 -42 -45 -37 -3 4 3 14 14 22 16 13 17 15 3 10 -22 -8
-23 1 -1 25 19 21 30 23 35 6z m606 -108 c12 -16 22 -32 22 -35 0 -3 -13 -20
-29 -37 l-29 -31 -30 24 c-38 30 -40 53 -6 84 35 32 46 31 72 -5z m-246 -17
c22 -20 23 -33 3 -33 -9 0 -15 -9 -15 -24 0 -32 -13 -39 -44 -25 -33 15 -32
22 2 65 31 40 30 39 54 17z m-195 -35 c18 -13 33 -28 33 -34 0 -5 -16 -27 -35
-49 l-36 -38 -34 33 -34 33 31 38 c17 22 34 39 37 39 2 0 20 -10 38 -22z m53
-158 c0 -5 -2 -10 -4 -10 -3 0 -8 5 -11 10 -3 6 -1 10 4 10 6 0 11 -4 11 -10z
m604 -7 c4 -9 2 -21 -4 -27 -5 -5 -10 -20 -10 -33 0 -28 -17 -29 -50 -3 l-25
20 34 30 c39 35 46 36 55 13z m-431 -45 l25 -31 -26 -34 c-32 -40 -45 -41 -88
-8 l-33 26 27 39 c34 49 62 51 95 8z m1164 -11 c4 -30 -4 -34 -32 -13 -17 12
-17 16 -6 30 19 22 34 16 38 -17z m-1386 -24 c15 -13 15 -17 -5 -53 -21 -40
-48 -60 -54 -40 -2 6 -11 17 -19 26 -14 13 -12 19 11 55 27 40 33 41 67 12z
m-205 -38 l33 -26 -27 -39 c-15 -22 -33 -39 -40 -40 -15 0 -51 38 -52 54 0 10
42 76 49 76 2 0 19 -11 37 -25z m294 -45 c0 -5 -5 -10 -11 -10 -5 0 -7 5 -4
10 3 6 8 10 11 10 2 0 4 -4 4 -10z m-45 -60 c3 -5 1 -10 -4 -10 -6 0 -11 5
-11 10 0 6 2 10 4 10 3 0 8 -4 11 -10z m395 -27 c23 -30 21 -65 -7 -95 -21
-24 -27 -23 -65 11 l-32 28 33 42 c18 22 36 41 41 41 5 0 18 -12 30 -27z
m-542 -18 c-11 -25 -28 -34 -28 -15 0 6 5 10 10 10 6 0 10 7 10 15 0 8 4 15
10 15 6 0 5 -10 -2 -25z m302 -4 c0 -6 -5 -13 -11 -16 -5 -4 -14 -18 -19 -31
-6 -14 -18 -24 -30 -24 -27 0 -25 12 6 49 25 30 54 41 54 22z m624 -16 c3 -8
2 -15 -3 -15 -5 0 -14 7 -21 15 -10 12 -10 15 3 15 8 0 17 -7 21 -15z m-809
-24 l33 -28 -38 -44 c-38 -43 -39 -44 -66 -29 -47 26 -51 43 -20 89 16 23 35
41 44 41 8 0 29 -13 47 -29z m-212 -58 c14 -17 13 -21 -14 -50 -33 -38 -44
-41 -59 -13 -9 16 -8 18 5 14 10 -4 15 0 15 14 0 51 24 66 53 35z m-186 -49
c3 -9 -4 -24 -16 -36 -27 -25 -33 -20 -25 20 7 34 30 43 41 16z m1039 -75 c16
-31 16 -32 -6 -26 -20 5 -21 3 -16 -29 5 -24 3 -34 -6 -34 -16 1 -58 35 -58
48 0 11 52 71 62 72 4 0 15 -14 24 -31z m396 3 c-7 -2 -12 -14 -12 -27 0 -18
-4 -22 -20 -18 -27 7 -25 17 7 48 18 16 29 21 32 13 2 -7 -1 -14 -7 -16z m408
-23 c0 -36 -3 -40 -21 -37 -35 5 -47 33 -25 57 30 33 46 26 46 -20z m-1233
-11 c30 -28 29 -59 -2 -88 -26 -24 -26 -24 -60 -6 -46 25 -50 41 -19 82 31 40
49 42 81 12z m-223 -33 c15 -23 15 -27 1 -41 -8 -9 -20 -24 -25 -35 -14 -24
-25 -24 -50 1 l-21 21 23 32 c38 54 49 58 72 22z m366 9 c0 -8 -5 -12 -10 -9
-6 4 -8 11 -5 16 9 14 15 11 15 -7z m-570 -41 l31 -28 -27 -37 c-32 -45 -60
-49 -94 -14 l-23 25 33 40 c17 23 36 41 41 41 5 0 22 -12 39 -27z m-196 -62
c3 -5 -1 -11 -9 -14 -9 -4 -12 -1 -8 9 6 16 10 17 17 5z m486 5 c0 -3 -4 -8
-10 -11 -5 -3 -10 -1 -10 4 0 6 5 11 10 11 6 0 10 -2 10 -4z m-515 -55 c-3 -6
-11 -11 -17 -11 -6 0 -6 6 2 15 14 17 26 13 15 -4z m1715 0 c0 -4 11 -20 24
-34 l24 -26 -30 -6 c-25 -6 -29 -11 -25 -31 5 -26 -7 -22 -51 16 l-23 19 26
36 c25 32 55 47 55 26z m-416 -34 c8 -22 6 -30 -9 -40 -10 -8 -15 -19 -11 -25
14 -23 -18 -23 -41 0 l-25 25 24 37 c26 42 48 43 62 3z m-425 -23 c25 -32 26
-38 6 -58 -8 -8 -15 -19 -15 -24 0 -5 -6 -15 -14 -21 -12 -10 -22 -6 -51 21
l-36 33 28 37 c33 44 54 47 82 12z m1003 4 c-7 -7 -12 -8 -12 -2 0 14 12 26
19 19 2 -3 -1 -11 -7 -17z m-1242 -13 c10 -13 9 -15 -9 -15 -14 0 -21 -6 -21
-19 0 -27 -27 -48 -43 -32 -9 10 -6 17 16 33 15 11 27 26 27 34 0 18 14 18 30
-1z m-190 -35 l34 -29 -30 -38 c-17 -21 -39 -40 -48 -41 -19 -4 -66 34 -66 52
0 18 50 86 63 86 7 0 28 -13 47 -30z m570 20 c0 -5 -5 -10 -11 -10 -5 0 -7 5
-4 10 3 6 8 10 11 10 2 0 4 -4 4 -10z m-796 -55 l27 -25 -31 -40 c-17 -22 -35
-40 -39 -40 -4 0 -20 14 -36 30 -16 17 -23 30 -17 30 7 0 22 16 34 35 13 19
26 35 29 35 3 0 18 -11 33 -25z m-195 -34 l24 -18 -29 -42 c-51 -72 -103 -40
-69 43 17 41 37 45 74 17z m1701 -75 c0 -3 -4 -8 -10 -11 -5 -3 -10 -1 -10 4
0 6 5 11 10 11 6 0 10 -2 10 -4z m-1240 -16 c0 -5 -7 -10 -15 -10 -8 0 -15 5
-15 10 0 6 7 10 15 10 8 0 15 -4 15 -10z m1041 -17 c7 -16 15 -31 17 -35 2 -5
-3 -8 -12 -8 -9 0 -16 -8 -16 -20 0 -27 -18 -25 -55 4 l-30 24 30 31 c37 38
48 38 66 4z m-432 -22 c22 -30 28 -61 12 -61 -5 0 -13 -9 -16 -20 -9 -28 -34
-24 -73 9 l-33 29 31 36 c39 44 52 45 79 7z m583 -3 c-7 -7 -12 -8 -12 -2 0
14 12 26 19 19 2 -3 -1 -11 -7 -17z m-822 7 c0 -3 -9 -14 -20 -25 -11 -11 -20
-29 -20 -40 0 -22 -26 -28 -33 -7 -5 15 43 77 61 77 6 0 12 -2 12 -5z m-220
-15 c11 -6 26 -22 33 -37 13 -23 12 -30 -5 -60 -24 -40 -43 -41 -87 -4 l-35
28 33 42 c36 46 35 45 61 31z m-201 -42 c10 -16 10 -23 2 -26 -6 -2 -11 -10
-11 -18 0 -17 -31 -54 -46 -54 -6 0 -19 9 -29 20 -19 21 -18 24 29 78 25 28
38 28 55 0z m-212 -20 c30 -28 29 -47 -3 -86 -32 -38 -49 -40 -81 -10 -30 28
-29 32 8 79 35 45 44 47 76 17z m-206 -51 c15 -11 13 -16 -17 -50 -39 -42 -50
-45 -59 -17 -4 13 2 30 17 50 26 32 35 35 59 17z m1741 -74 c19 -17 25 -68 8
-78 -5 -3 -10 -15 -10 -26 0 -10 -3 -19 -6 -19 -11 0 -84 55 -84 63 0 12 54
77 64 77 5 0 18 -7 28 -17z m-1472 -7 c0 -2 -7 -7 -16 -10 -8 -3 -12 -2 -9 4
6 10 25 14 25 6z m1032 -38 c4 -27 -2 -47 -29 -97 -1 -2 -15 7 -32 20 -29 23
-41 49 -22 49 6 0 18 14 28 30 23 40 49 39 55 -2z m-433 -28 c28 -35 30 -41
17 -57 -8 -10 -23 -29 -34 -42 l-18 -24 -37 33 c-20 18 -37 36 -37 42 0 11 61
88 70 88 4 0 21 -18 39 -40z m191 31 c0 -5 -7 -12 -16 -15 -9 -4 -14 -9 -11
-13 10 -9 -12 -43 -28 -43 -21 0 -19 6 13 46 27 33 42 43 42 25z m-634 -68
c23 -21 34 -38 27 -40 -7 -3 -22 -20 -33 -39 -12 -19 -29 -34 -38 -34 -17 0
-72 48 -72 62 0 12 61 88 70 88 4 0 25 -17 46 -37z m194 23 c0 -8 -4 -18 -10
-21 -5 -3 -10 -4 -10 -1 0 2 -3 11 -6 20 -4 11 -1 16 10 16 9 0 16 -6 16 -14z
m-30 -31 c0 -14 -5 -25 -11 -25 -6 0 -9 -6 -6 -14 4 -11 1 -11 -19 -2 -24 11
-32 26 -14 26 6 0 10 6 10 14 0 13 13 23 33 25 4 1 7 -10 7 -24z m-398 -12
c24 -21 22 -42 -5 -74 -34 -38 -53 -42 -72 -13 -15 24 -15 26 15 64 36 46 37
46 62 23z m-199 -28 c15 -13 27 -28 27 -32 -1 -4 -16 -25 -35 -47 -37 -42 -54
-42 -80 -2 -16 23 -15 26 11 65 15 23 32 41 38 41 6 0 23 -12 39 -25z m507
-55 c0 -5 -5 -10 -11 -10 -5 0 -7 5 -4 10 3 6 8 10 11 10 2 0 4 -4 4 -10z
m-215 -30 c3 -5 1 -10 -4 -10 -6 0 -11 5 -11 10 0 6 2 10 4 10 3 0 8 -4 11
-10z m1258 -49 c21 -36 22 -55 2 -47 -11 4 -15 -1 -15 -19 0 -13 -4 -26 -9
-29 -11 -7 -80 35 -81 49 0 19 60 84 73 79 7 -2 21 -18 30 -33z m-1083 8 c0
-6 -4 -7 -10 -4 -5 3 -10 11 -10 16 0 6 5 7 10 4 6 -3 10 -11 10 -16z m1254
-32 c-9 -29 -8 -29 -28 -21 -20 8 -20 18 0 38 20 21 37 10 28 -17z m-1474 13
c0 -5 -4 -10 -10 -10 -5 0 -10 5 -10 10 0 6 5 10 10 10 6 0 10 -4 10 -10z
m855 -22 c13 -22 15 -33 7 -36 -7 -2 -12 -9 -12 -15 0 -7 -7 -21 -15 -31 -14
-19 -15 -18 -50 5 -19 13 -35 28 -35 32 0 18 53 77 69 77 9 0 25 -14 36 -32z
m-262 -5 c-7 -2 -9 -11 -6 -19 3 -8 0 -14 -5 -14 -6 0 -13 -9 -17 -19 -4 -12
-12 -18 -21 -14 -20 7 -18 20 13 59 19 26 29 32 37 23 8 -8 8 -13 -1 -16z
m-184 -24 c24 -32 24 -33 -23 -92 -18 -23 -43 -16 -79 21 l-27 28 31 37 c38
46 67 48 98 6z m-245 -22 c9 -14 7 -20 -6 -28 -10 -6 -18 -16 -18 -22 0 -27
-22 -36 -46 -20 -30 19 -30 22 4 61 29 35 48 37 66 9z m-203 -9 c7 -13 16 -26
21 -29 11 -7 -53 -89 -70 -89 -7 0 -27 13 -43 30 l-30 30 32 40 c37 46 72 53
90 18z m-224 -30 l21 -23 -35 -40 -35 -40 -19 24 c-19 23 -19 23 6 53 14 16
25 34 25 39 0 16 16 10 37 -13z m253 -128 c-6 -12 -14 -20 -17 -17 -2 3 1 14
8 26 17 26 24 19 9 -9z"/>
<path d="M6300 6210 c0 -11 5 -20 10 -20 6 0 10 9 10 20 0 11 -4 20 -10 20 -5
0 -10 -9 -10 -20z"/>
<path d="M9052 5190 c-6 -11 -12 -22 -12 -25 0 -11 20 6 30 26 14 25 -2 25
-18 -1z"/>
<path d="M8840 5011 c0 -6 5 -13 10 -16 6 -3 10 1 10 9 0 9 -4 16 -10 16 -5 0
-10 -4 -10 -9z"/>
<path d="M8752 4888 c3 -7 12 -14 21 -16 12 -2 15 1 11 12 -7 19 -38 22 -32 4z"/>
<path d="M8626 4651 c-3 -5 1 -11 9 -14 9 -4 12 -1 8 9 -6 16 -10 17 -17 5z"/>
<path d="M6460 5130 c0 -5 5 -10 10 -10 6 0 10 5 10 10 0 6 -4 10 -10 10 -5 0
-10 -4 -10 -10z"/>
<path d="M7022 5051 c-11 -6 -9 -9 6 -13 15 -4 19 -2 15 8 -6 16 -4 16 -21 5z"/>
<path d="M7580 760 c0 -19 3 -21 12 -12 9 9 9 15 0 24 -9 9 -12 7 -12 -12z"/>
<path d="M7840 8699 c0 -11 5 -17 10 -14 6 3 10 13 10 21 0 8 -4 14 -10 14 -5
0 -10 -9 -10 -21z"/>
<path d="M8140 8706 c0 -8 5 -18 10 -21 6 -3 10 3 10 14 0 12 -4 21 -10 21 -5
0 -10 -6 -10 -14z"/>
<path d="M10252 8391 c-8 -5 -12 -16 -10 -24 2 -11 7 -14 16 -8 8 5 12 16 10
24 -2 11 -7 14 -16 8z"/>
<path d="M10239 8306 c6 -7 8 -22 5 -32 -6 -18 -6 -18 11 -2 16 15 16 18 2 32
-19 20 -34 21 -18 2z"/>
<path d="M9856 8259 c-13 -32 -20 -39 -35 -34 -15 4 -21 0 -25 -22 -10 -44 7
-88 32 -87 15 0 22 -5 22 -18 0 -11 7 -18 19 -18 33 0 51 -11 51 -31 0 -10 5
-19 10 -19 6 0 10 5 10 10 0 6 14 10 30 10 32 0 34 -7 31 -85 -1 -28 -1 -28
10 -10 7 11 16 23 22 26 5 4 2 19 -7 37 -9 17 -16 38 -16 47 0 11 -11 15 -46
15 -42 0 -44 1 -29 16 11 12 26 15 50 11 28 -5 38 -1 62 26 28 31 29 34 15 67
-11 26 -12 42 -4 63 13 35 -6 46 -40 23 -12 -9 -39 -16 -60 -16 -29 0 -38 -4
-39 -17 0 -12 -6 -6 -16 15 -9 17 -20 32 -24 32 -4 0 -14 -18 -23 -41z"/>
<path d="M4260 8104 c48 -64 90 -97 90 -70 0 8 -24 31 -52 52 -29 20 -46 29
-38 18z"/>
<path d="M9840 8026 c0 -19 5 -26 20 -26 16 0 18 4 11 22 -12 32 -31 34 -31 4z"/>
<path d="M9920 7980 c0 -11 5 -20 10 -20 6 0 10 9 10 20 0 11 -4 20 -10 20 -5
0 -10 -9 -10 -20z"/>
<path d="M9725 7896 c-8 -13 -13 -31 -9 -40 3 -9 2 -16 -2 -16 -5 0 -8 -31 -8
-70 2 -94 1 -90 29 -90 24 0 25 -2 25 -65 0 -37 4 -65 10 -65 6 0 10 5 10 10
0 15 57 12 63 -2 3 -8 9 -3 15 12 5 14 6 26 1 28 -12 5 -12 162 0 162 5 0 7 9
4 20 -3 11 -9 20 -14 20 -5 0 -9 27 -9 60 0 33 -3 60 -6 60 -3 0 -17 -13 -31
-30 -13 -16 -29 -30 -34 -30 -5 0 -9 14 -9 30 0 36 -14 39 -35 6z m115 -231
c0 -10 -10 -15 -30 -15 -20 0 -30 5 -30 15 0 10 10 15 30 15 20 0 30 -5 30
-15z"/>
<path d="M9945 7910 c3 -5 1 -10 -5 -10 -6 0 -8 -4 -5 -10 10 -17 25 -11 25
10 0 11 -5 20 -11 20 -5 0 -7 -4 -4 -10z"/>
<path d="M9883 7640 c0 -25 2 -35 4 -22 2 12 2 32 0 45 -2 12 -4 2 -4 -23z"/>
<path d="M9636 7524 c-9 -24 -7 -84 3 -84 5 0 11 21 13 46 3 46 -5 67 -16 38z"/>
<path d="M9407 7499 c-8 -28 -1 -40 19 -32 17 6 15 44 -2 50 -6 2 -14 -6 -17
-18z"/>
<path d="M9655 7410 c-7 -12 2 -30 16 -30 5 0 9 9 9 20 0 21 -15 27 -25 10z"/>
<path d="M9376 7234 c-9 -22 3 -32 14 -14 12 19 12 30 1 30 -5 0 -12 -7 -15
-16z"/>
<path d="M9760 7210 c0 -5 5 -10 10 -10 6 0 10 5 10 10 0 6 -4 10 -10 10 -5 0
-10 -4 -10 -10z"/>
<path d="M8320 7074 c0 -8 5 -12 10 -9 6 4 8 11 5 16 -9 14 -15 11 -15 -7z"/>
<path d="M8348 6953 c7 -3 16 -2 19 1 4 3 -2 6 -13 5 -11 0 -14 -3 -6 -6z"/>
<path d="M8740 6896 c0 -9 7 -16 16 -16 9 0 14 5 12 12 -6 18 -28 21 -28 4z"/>
<path d="M4750 6705 c0 -8 5 -15 10 -15 6 0 10 7 10 15 0 8 -4 15 -10 15 -5 0
-10 -7 -10 -15z"/>
<path d="M4837 6543 c-14 -13 -6 -23 18 -23 28 0 34 15 9 24 -19 7 -19 7 -27
-1z"/>
</g>
</svg>
